<?xml version="1.0" encoding="UTF-8" standalone="no"?>
<!-- Generator: Adobe Illustrator 22.0.0, SVG Export Plug-In . SVG Version: 6.00 Build 0)  -->

<svg
   version="1.1"
   x="0px"
   y="0px"
   viewBox="0 0 800 600"
   style="enable-background:new 0 0 800 600;"
   xml:space="preserve"
   id="svg261"
   sodipodi:docname="new1sr.svg"
   inkscape:version="1.3 (0e150ed6c4, 2023-07-21)"
   xmlns:inkscape="http://www.inkscape.org/namespaces/inkscape"
   xmlns:sodipodi="http://sodipodi.sourceforge.net/DTD/sodipodi-0.dtd"
   xmlns="http://www.w3.org/2000/svg"
   xmlns:svg="http://www.w3.org/2000/svg"><defs
   id="defs261" /><sodipodi:namedview
   id="namedview261"
   pagecolor="#ffffff"
   bordercolor="#000000"
   borderopacity="0.25"
   inkscape:showpageshadow="2"
   inkscape:pageopacity="0.0"
   inkscape:pagecheckerboard="0"
   inkscape:deskcolor="#d1d1d1"
   inkscape:zoom="0.91570328"
   inkscape:cx="396.41662"
   inkscape:cy="276.8364"
   inkscape:window-width="1920"
   inkscape:window-height="991"
   inkscape:window-x="-9"
   inkscape:window-y="-9"
   inkscape:window-maximized="1"
   inkscape:current-layer="svg261" />&#10;<style
   type="text/css"
   id="style1">&#10;	.st0{fill:none;stroke:#808080;stroke-width:0.5;}&#10;	.st1{fill:none;stroke:#FF7F00;stroke-width:0.5;}&#10;	.st2{fill:#FF00FF;}&#10;	.st3{fill:none;stroke:#FF00FF;stroke-width:0.5;}&#10;	.st4{fill:#0000FF;}&#10;	.st5{fill:none;stroke:#0000FF;stroke-width:0.5;}&#10;	.st6{fill:#00FFFF;}&#10;	.st7{fill:none;stroke:#00FFFF;stroke-width:0.5;}&#10;	.st8{fill:#FF0000;}&#10;	.st9{fill:none;stroke:#FF0000;stroke-width:0.5;}&#10;	.st10{fill:#FF8080;}&#10;	.st11{fill:none;stroke:#FF8080;}&#10;	.st12{fill:#FF8080;stroke:#FF8080;}&#10;	.st13{fill:#808080;stroke:#808080;stroke-width:0.5;}&#10;</style>&#10;<g
   id="Layer_1">&#10;	<title
   id="title1">Produce by Acme CAD Converter</title>&#10;	<desc
   id="desc1">Produce by Acme CAD Converter</desc>&#10;	<path
   class="st0"
   d="M647,17.5l90.6,493.9"
   id="path1" />&#10;	<path
   class="st0"
   d="M659.5,15.2l90.3,492.4"
   id="path2" />&#10;	<path
   class="st0"
   d="M749.8,507.6l-12.2,3.8"
   id="path3" />&#10;	<path
   class="st0"
   d="M732,494.6l16.6-3.4 M748.6,491.2l3.4,16.6 M752,507.8l-16.6,3.4 M735.4,511.2l-3.4-16.6"
   id="path4" />&#10;	<path
   class="st0"
   d="M663.1,114.4l16.6-3.4 M679.7,111l3.4,16.6 M683.1,127.6l-16.6,3.4 M666.5,131l-3.4-16.6"
   id="path5" />&#10;	<path
   class="st0"
   d="M697.5,302.6l16.6-3.4 M714.1,299.2l3.4,16.6 M717.5,315.8l-16.6,3.4 M700.9,319.2l-3.4-16.6"
   id="path6" />&#10;	<path
   class="st0"
   d="M667.7,120.4l0.2-1.5 M667.9,118.9l0.6-1.4 M668.5,117.5l0.9-1.2 M669.4,116.3l1.2-0.9 M670.6,115.4l1.4-0.6    M672,114.8l1.5-0.2 M673.5,114.7l1.5,0.2 M675,114.8l1.4,0.6 M676.4,115.4l1.2,0.9 M677.6,116.3l0.9,1.2 M678.5,117.5l0.6,1.4    M679.1,118.9l0.2,1.5 M679.3,120.4l-0.2,1.5 M679.1,121.9l-0.6,1.4 M678.5,123.3l-0.9,1.2 M677.6,124.5l-1.2,0.9 M676.4,125.5   L675,126 M675,126l-1.5,0.2 M673.5,126.2L672,126 M672,126l-1.4-0.6 M670.6,125.5l-1.2-0.9 M669.4,124.5l-0.9-1.2 M668.5,123.3   l-0.6-1.4 M667.9,121.9l-0.2-1.5"
   id="path7" />&#10;	<path
   class="st0"
   d="M666.3,119v3.9 M666.3,122.9h2.3 M669.5,122.9V119 M673.8,120l-0.2-0.4 M673.6,119.6l-0.4-0.4 M673.3,119.2   l-0.4-0.2 M672.9,119h-0.7 M672.1,119l-0.4,0.2 M671.8,119.2l-0.4,0.4 M671.4,119.6l-0.2,0.4 M671.2,120l-0.2,0.6 M671,120.5v0.9    M671,121.5l0.2,0.6 M671.2,122l0.2,0.4 M671.4,122.4l0.4,0.4 M671.8,122.8l0.4,0.2 M672.1,122.9h0.7 M672.9,122.9l0.4-0.2    M673.3,122.8l0.4-0.4 M673.6,122.4l0.2-0.4 M673.8,122v-0.6 M673.8,121.5h-0.9 M674.9,122.9V119 M677.6,119v3.9 M674.9,120.9h2.6    M680.4,119v3.9 M679,119h2.6"
   id="path8" />&#10;	<path
   class="st0"
   d="M702.1,308.7l0.2-1.5 M702.3,307.2l0.6-1.4 M702.8,305.8l0.9-1.2 M703.8,304.6l1.2-0.9 M705,303.7l1.4-0.6    M706.4,303.1l1.5-0.2 M707.9,302.9l1.5,0.2 M709.4,303.1l1.4,0.6 M710.8,303.7l1.2,0.9 M712,304.6l0.9,1.2 M712.9,305.8l0.6,1.4    M713.5,307.2l0.2,1.5 M713.7,308.7l-0.2,1.5 M713.5,310.2l-0.6,1.4 M712.9,311.6l-0.9,1.2 M712,312.8l-1.2,0.9 M710.8,313.7   l-1.4,0.6 M709.4,314.3l-1.5,0.2 M707.9,314.5l-1.5-0.2 M706.4,314.3l-1.4-0.6 M705,313.7l-1.2-0.9 M703.8,312.8l-0.9-1.2    M702.8,311.6l-0.6-1.4 M702.3,310.2l-0.2-1.5"
   id="path9" />&#10;	<path
   class="st0"
   d="M700.7,307.3v3.9 M700.7,311.2h2.3 M703.9,311.2v-3.9 M708.2,308.2l-0.2-0.4 M708,307.8l-0.4-0.4 M707.6,307.5   l-0.4-0.2 M707.3,307.3h-0.8 M706.5,307.3l-0.4,0.2 M706.1,307.5l-0.4,0.4 M705.8,307.8l-0.2,0.4 M705.6,308.2l-0.2,0.6    M705.4,308.8v0.9 M705.4,309.7l0.2,0.6 M705.6,310.3l0.2,0.4 M705.8,310.6l0.4,0.4 M706.1,311l0.4,0.2 M706.5,311.2h0.8    M707.3,311.2l0.4-0.2 M707.6,311l0.4-0.4 M708,310.6l0.2-0.4 M708.2,310.3v-0.6 M708.2,309.7h-0.9 M709.3,311.2v-3.9 M711.9,307.3   v3.9 M709.3,309.1h2.6 M714.7,307.3v3.9 M713.4,307.3h2.6"
   id="path10" />&#10;	<path
   class="st0"
   d="M736.6,500.7l0.2-1.5 M736.8,499.2l0.6-1.4 M737.3,497.8l0.9-1.2 M738.3,496.6l1.2-0.9 M739.5,495.6l1.4-0.6    M740.9,495.1l1.5-0.2 M742.4,494.9l1.5,0.2 M743.9,495.1l1.4,0.6 M745.3,495.6l1.2,0.9 M746.5,496.6l0.9,1.2 M747.4,497.8l0.6,1.4    M748,499.2l0.2,1.5 M748.2,500.7l-0.2,1.5 M748,502.2l-0.6,1.4 M747.4,503.5l-0.9,1.2 M746.5,504.8l-1.2,0.9 M745.3,505.7   l-1.4,0.6 M743.9,506.3l-1.5,0.2 M742.4,506.5l-1.5-0.2 M740.9,506.3l-1.4-0.6 M739.5,505.7l-1.2-0.9 M738.3,504.8l-0.9-1.2    M737.3,503.5l-0.6-1.4 M736.8,502.2l-0.2-1.5"
   id="path11" />&#10;	<path
   class="st0"
   d="M735.2,499.2v3.9 M735.2,503.2h2.2 M738.4,503.2v-3.9 M742.7,500.2l-0.2-0.4 M742.5,499.8l-0.4-0.4    M742.1,499.4l-0.4-0.2 M741.8,499.2H741 M741,499.2l-0.4,0.2 M740.6,499.4l-0.4,0.4 M740.3,499.8l-0.2,0.4 M740.1,500.2l-0.2,0.6    M739.9,500.7v0.9 M739.9,501.7l0.2,0.6 M740.1,502.2l0.2,0.4 M740.3,502.6l0.4,0.4 M740.6,503l0.4,0.2 M741,503.2h0.8    M741.8,503.2l0.4-0.2 M742.1,503l0.4-0.4 M742.5,502.6l0.2-0.4 M742.7,502.2v-0.6 M742.7,501.7h-0.9 M743.8,503.2v-3.9    M746.4,499.2v3.9 M743.8,501.1h2.6 M749.2,499.2v3.9 M747.9,499.2h2.6"
   id="path12" />&#10;	<path
   class="st0"
   d="M749.8,507.6l-12.2,3.8"
   id="path13" />&#10;	<path
   class="st0"
   d="M732,494.6l16.6-3.4 M748.6,491.2l3.4,16.6 M752,507.8l-16.6,3.4 M735.4,511.2l-3.4-16.6"
   id="path14" />&#10;	<path
   class="st0"
   d="M663.1,114.4l16.6-3.4 M679.7,111l3.4,16.6 M683.1,127.6l-16.6,3.4 M666.5,131l-3.4-16.6"
   id="path15" />&#10;	<path
   class="st0"
   d="M697.5,302.6l16.6-3.4 M714.1,299.2l3.4,16.6 M717.5,315.8l-16.6,3.4 M700.9,319.2l-3.4-16.6"
   id="path16" />&#10;	<path
   class="st0"
   d="M667.7,120.4l0.2-1.5 M667.9,118.9l0.6-1.4 M668.5,117.5l0.9-1.2 M669.4,116.3l1.2-0.9 M670.6,115.4l1.4-0.6    M672,114.8l1.5-0.2 M673.5,114.7l1.5,0.2 M675,114.8l1.4,0.6 M676.4,115.4l1.2,0.9 M677.6,116.3l0.9,1.2 M678.5,117.5l0.6,1.4    M679.1,118.9l0.2,1.5 M679.3,120.4l-0.2,1.5 M679.1,121.9l-0.6,1.4 M678.5,123.3l-0.9,1.2 M677.6,124.5l-1.2,0.9 M676.4,125.5   L675,126 M675,126l-1.5,0.2 M673.5,126.2L672,126 M672,126l-1.4-0.6 M670.6,125.5l-1.2-0.9 M669.4,124.5l-0.9-1.2 M668.5,123.3   l-0.6-1.4 M667.9,121.9l-0.2-1.5"
   id="path17" />&#10;	<path
   class="st0"
   d="M666.3,119v3.9 M666.3,122.9h2.3 M669.5,122.9V119 M673.8,120l-0.2-0.4 M673.6,119.6l-0.4-0.4 M673.3,119.2   l-0.4-0.2 M672.9,119h-0.7 M672.1,119l-0.4,0.2 M671.8,119.2l-0.4,0.4 M671.4,119.6l-0.2,0.4 M671.2,120l-0.2,0.6 M671,120.5v0.9    M671,121.5l0.2,0.6 M671.2,122l0.2,0.4 M671.4,122.4l0.4,0.4 M671.8,122.8l0.4,0.2 M672.1,122.9h0.7 M672.9,122.9l0.4-0.2    M673.3,122.8l0.4-0.4 M673.6,122.4l0.2-0.4 M673.8,122v-0.6 M673.8,121.5h-0.9 M674.9,122.9V119 M677.6,119v3.9 M674.9,120.9h2.6    M680.4,119v3.9 M679,119h2.6"
   id="path18" />&#10;	<path
   class="st0"
   d="M702.1,308.7l0.2-1.5 M702.3,307.2l0.6-1.4 M702.8,305.8l0.9-1.2 M703.8,304.6l1.2-0.9 M705,303.7l1.4-0.6    M706.4,303.1l1.5-0.2 M707.9,302.9l1.5,0.2 M709.4,303.1l1.4,0.6 M710.8,303.7l1.2,0.9 M712,304.6l0.9,1.2 M712.9,305.8l0.6,1.4    M713.5,307.2l0.2,1.5 M713.7,308.7l-0.2,1.5 M713.5,310.2l-0.6,1.4 M712.9,311.6l-0.9,1.2 M712,312.8l-1.2,0.9 M710.8,313.7   l-1.4,0.6 M709.4,314.3l-1.5,0.2 M707.9,314.5l-1.5-0.2 M706.4,314.3l-1.4-0.6 M705,313.7l-1.2-0.9 M703.8,312.8l-0.9-1.2    M702.8,311.6l-0.6-1.4 M702.3,310.2l-0.2-1.5"
   id="path19" />&#10;	<path
   class="st0"
   d="M700.7,307.3v3.9 M700.7,311.2h2.3 M703.9,311.2v-3.9 M708.2,308.2l-0.2-0.4 M708,307.8l-0.4-0.4 M707.6,307.5   l-0.4-0.2 M707.3,307.3h-0.8 M706.5,307.3l-0.4,0.2 M706.1,307.5l-0.4,0.4 M705.8,307.8l-0.2,0.4 M705.6,308.2l-0.2,0.6    M705.4,308.8v0.9 M705.4,309.7l0.2,0.6 M705.6,310.3l0.2,0.4 M705.8,310.6l0.4,0.4 M706.1,311l0.4,0.2 M706.5,311.2h0.8    M707.3,311.2l0.4-0.2 M707.6,311l0.4-0.4 M708,310.6l0.2-0.4 M708.2,310.3v-0.6 M708.2,309.7h-0.9 M709.3,311.2v-3.9 M711.9,307.3   v3.9 M709.3,309.1h2.6 M714.7,307.3v3.9 M713.4,307.3h2.6"
   id="path20" />&#10;	<path
   class="st0"
   d="M736.6,500.7l0.2-1.5 M736.8,499.2l0.6-1.4 M737.3,497.8l0.9-1.2 M738.3,496.6l1.2-0.9 M739.5,495.6l1.4-0.6    M740.9,495.1l1.5-0.2 M742.4,494.9l1.5,0.2 M743.9,495.1l1.4,0.6 M745.3,495.6l1.2,0.9 M746.5,496.6l0.9,1.2 M747.4,497.8l0.6,1.4    M748,499.2l0.2,1.5 M748.2,500.7l-0.2,1.5 M748,502.2l-0.6,1.4 M747.4,503.5l-0.9,1.2 M746.5,504.8l-1.2,0.9 M745.3,505.7   l-1.4,0.6 M743.9,506.3l-1.5,0.2 M742.4,506.5l-1.5-0.2 M740.9,506.3l-1.4-0.6 M739.5,505.7l-1.2-0.9 M738.3,504.8l-0.9-1.2    M737.3,503.5l-0.6-1.4 M736.8,502.2l-0.2-1.5"
   id="path21" />&#10;	<path
   class="st0"
   d="M735.2,499.2v3.9 M735.2,503.2h2.2 M738.4,503.2v-3.9 M742.7,500.2l-0.2-0.4 M742.5,499.8l-0.4-0.4    M742.1,499.4l-0.4-0.2 M741.8,499.2H741 M741,499.2l-0.4,0.2 M740.6,499.4l-0.4,0.4 M740.3,499.8l-0.2,0.4 M740.1,500.2l-0.2,0.6    M739.9,500.7v0.9 M739.9,501.7l0.2,0.6 M740.1,502.2l0.2,0.4 M740.3,502.6l0.4,0.4 M740.6,503l0.4,0.2 M741,503.2h0.8    M741.8,503.2l0.4-0.2 M742.1,503l0.4-0.4 M742.5,502.6l0.2-0.4 M742.7,502.2v-0.6 M742.7,501.7h-0.9 M743.8,503.2v-3.9    M746.4,499.2v3.9 M743.8,501.1h2.6 M749.2,499.2v3.9 M747.9,499.2h2.6"
   id="path22" />&#10;	<path
   class="st0"
   d="M653,167.8l14.7-6.7"
   id="path23" />&#10;	<path
   class="st0"
   d="M653,167.8l-3.3-15.8"
   id="path24" />&#10;	<path
   class="st0"
   d="M653,167.8l-12.4,10.8"
   id="path25" />&#10;	<path
   class="st0"
   d="M653,167.8l7.5,10.7"
   id="path26" />&#10;	<path
   class="st0"
   d="M653,167.8l-7.2-8.4"
   id="path27" />&#10;	<path
   class="st0"
   d="M653.8,167.7l4,1.7 M657.8,169.4l-2.6-2.2 M655.3,167.2l2.8,0.3 M658,167.5l-1.1-0.9 M656.9,166.6l4.6,0.5    M661.5,167.1l-2.8-1 M658.7,166.1h3.2 M661.9,166.1l-1.6-0.7 M660.2,165.4l5.7-0.3 M665.9,165.1l-4-0.9 M661.9,164.3l2.9-0.4    M664.8,163.9l-2.2-0.5 M662.5,163.4l5.1-1.1 M667.6,162.3l-2.3-0.1 M665.3,162.2l3-1.8 M668.3,160.4l-3.2,0.9 M665.1,161.3   l0.3-2.4 M665.4,158.9l-1.5,3.6 M664,162.4l-0.4-2.2 M663.5,160.2l-0.5,2.3 M663,162.5l-1.6-2.9 M661.5,159.6l-0.6,4 M660.8,163.7   l-0.6-2.3 M660.2,161.4l-0.1,2.5 M660.1,163.9l-1.3-3.3 M658.8,160.6l-0.2,4 M658.6,164.5l-0.6-1.4 M658,163.2l-0.9,2.2    M657.1,165.4l-0.8-3.1 M656.3,162.2l-1,3.5 M655.3,165.8v-1.7 M655.3,164.1l-1.1,1.7 M654.2,165.8l-0.3-1.6 M653.9,164.2l-0.5,2.8   "
   id="path28" />&#10;	<path
   class="st0"
   d="M652.8,166.2l1.1-3.6 M653.9,162.5l-1.3,1.3 M652.7,163.8l1.8-4.1 M654.4,159.8l-1.8,1.6 M652.6,161.3l2.4-3.6    M654.9,157.7l-2.6,1.8 M652.4,159.4l1.4-3 M653.7,156.4l-1.4,1.5 M652.4,157.9l0.9-2.8 M653.3,155.1l-1.8,1.7 M651.5,156.7   l0.6-2.8 M652.1,153.9l-1,0.9 M651.1,154.8l-0.2-3 M650.9,151.8l-0.3,1.1 M650.6,152.9l-1.5-1.8 M649,151.1l1.1,2.6 M650.2,153.7   l-1.9-0.4 M648.3,153.3l2,1.5 M650.3,154.8l-2,0.5 M648.3,155.3l2.1,0.7 M650.4,155.9l-1.8,0.3 M648.5,156.2l2.4,1.5 M650.9,157.7   l-2.4-0.3 M648.5,157.4l2.7,2 M651.2,159.4l-2-0.7 M649.2,158.7l1.1,1.1 M650.3,159.8h-0.9 M649.3,159.8l1.6,1.5 M650.9,161.3   l-2.2-0.1 M648.7,161.2l2.8,1.8 M651.5,162.9l-1.9-0.1 M649.6,162.9l1.7,1.2"
   id="path29" />&#10;	<path
   class="st0"
   d="M651.8,165.9v-2.2 M651.8,163.7l-0.9,1.3 M651,164.9l-0.5-1.3 M650.5,163.7l-0.3,0.7 M650.2,164.4l-0.7-2.3    M649.4,162.1l-0.3,0.6 M649.1,162.7l-0.9-2.7 M648.2,160L648,161 M648,161l-0.7-2.7 M647.3,158.3l-0.1,1.5 M647.1,159.8l-1.4-2.4    M645.7,157.4l0.4,1.7 M646.1,159l-2-1.6 M644.2,157.5l1.4,2 M645.5,159.4l-1.7-0.3 M643.8,159.1l2.1,1.1 M645.9,160.2l-2.6,0.7    M643.3,160.9l3.5,0.4 M646.8,161.3l-2.6,1.2 M644.2,162.5l3.4,0.1 M647.7,162.6l-1.8,1.2 M645.9,163.9h2.9 M648.8,163.9l-1.3,0.9    M647.5,164.8l3,0.9 M650.5,165.8l-2,0.7 M648.5,166.5l3.4,0.6 M651.9,167.1l-1.8,0.5 M650.1,167.6l1.8,0.5 M651.9,168.1l-3.7,0.3    M648.2,168.4l1.8,0.5 M650,168.9l-3.5,0.6 M646.5,169.5l2.1,0.5 M648.5,170l-3.9,0.9 M644.7,170.9l2.5,0.5 M647.1,171.5l-4.3,0.5    M642.8,172l2.3,0.6 M645.1,172.6l-3.5,0.9 M641.5,173.6l3.5,0.3 M645.1,173.8l-4,1.1 M641.1,174.9l2.6,0.4 M643.6,175.3l-3.4,1.3    M640.2,176.6h1.8 M642,176.6l-2.3,2 M639.7,178.6l2.6-0.9 M642.3,177.7l0.1,1.2 M642.4,178.8l0.8-2.2 M643.2,176.6l0.3,1.2    M643.5,177.8l0.6-2.1 M644.2,175.7l0.5,1.3 M644.7,177.1l1.1-2.5 M645.7,174.6l0.5,2.3 M646.2,176.9l0.9-3.2 M647.1,173.6l0.3,1.8    M647.4,175.4l1.5-3.2 M648.9,172.2v2 M648.9,174.2l1.4-3.5 M650.4,170.7l0.1,2.5 M650.5,173.2l1.1-3.3 M651.6,169.9l0.5,2    M652.1,172l0.5-3.1 M652.6,168.9l0.2,2 M652.8,170.9l0.5-1.5 M653.3,169.4l0.2,3.4 M653.5,172.8l0.7-1.3 M654.2,171.6l-0.4,3.1    M653.8,174.7l1.5-2.4 M655.3,172.3l-0.3,2.6 M654.9,174.9l0.6-1.3 M655.5,173.6l0.2,3.5 M655.8,177.1l0.9-2.8 M656.6,174.2   l-0.2,2.9 M656.4,177.2l0.7-1.5 M657.1,175.7v3.5 M657.1,179.2l0.7-2.5 M657.8,176.7l0.2,3.8 M658,180.5l0.4-2.5 M658.5,178l2,2.6    M660.5,180.6l-0.9-2.2 M659.5,178.4l2.9,1.1 M662.4,179.6l-1.8-1.8 M660.7,177.8l2.2-0.1 M662.8,177.7l-2.3-0.8 M660.5,176.9   l1.1-0.4 M661.7,176.4l-1.9-0.7 M659.8,175.7l1.6-0.4 M661.4,175.3l-2.6-0.9 M658.8,174.4l3-0.5 M661.8,174l-3.8-0.5 M658,173.4   l3.6-0.8 M661.6,172.6l-3.8-0.3 M657.8,172.3l2.6-0.6 M660.3,171.7l-3.7-0.2 M656.6,171.5l1.8-0.5 M658.5,170.9l-3.3-0.6    M655.1,170.3l1.9-0.4 M657,169.9l-2.8-1.1 M654.2,168.8l1.3-0.1"
   id="path30" />&#10;	<path
   class="st0"
   d="M646.2,166.7l-7.3-1.8"
   id="path31" />&#10;	<path
   class="st0"
   d="M642.8,167.9l-3.5,3"
   id="path32" />&#10;	<path
   class="st0"
   d="M648.2,167.2l-1.5-2 M646.7,165.2v1.5 M646.7,166.7l-1.6-2.2 M645.1,164.5l0.4,1.4 M645.5,166l-2.4-2.5    M643.1,163.5l0.5,1.9 M643.6,165.4l-2.6-2.2 M641.1,163.2l0.7,1.8 M641.8,164.9l-2.3-1.6 M639.5,163.4l0.9,1.4 M640.3,164.8   l-2.4-1 M637.9,163.8l0.3,0.8 M638.2,164.6l-0.9,0.3 M637.3,164.9l1.7,0.3 M639,165.2l-1.3,0.7 M637.6,166h3.1 M640.7,166l-1.3,0.5    M639.4,166.5l3.1-0.3 M642.5,166.2l-1.7,1.1 M640.8,167.2l3.4-0.6 M644.2,166.6l-1.8,0.7 M642.5,167.3l2.9-0.1 M645.4,167.2   l-1.2,0.9 M644.2,168.1l3-0.7 M647.3,167.4l-1,0.8 M646.2,168.2l1.5-0.4"
   id="path33" />&#10;	<path
   class="st0"
   d="M642.6,167.8l-1.5,0.4 M641.1,168.2l0.5,0.2 M641.7,168.4l-1.8,0.3 M639.9,168.8l0.7,0.3 M640.6,169.1   l-2.2,0.2 M638.5,169.3l1.5,0.5 M639.9,169.7l-1.8,0.7 M638.1,170.4l0.9,0.1 M639.1,170.5l-1.1,0.9 M637.9,171.5h1.3 M639.3,171.5   l-0.3,0.8 M639,172.3l1.2-1.3 M640.2,170.9l0.2,1 M640.4,172l0.5-1.8 M640.9,170.1l0.6,1.4 M641.5,171.5l0.1-2 M641.7,169.5   l0.6,1.3 M642.3,170.7l0.4-1.9 M642.7,168.9l0.4,0.6 M643.1,169.5v-1.1"
   id="path34" />&#10;	<path
   class="st0"
   d="M642.6,161.9l-2.7-2.1"
   id="path35" />&#10;	<path
   class="st0"
   d="M643.3,162.6l-2.2-0.2 M641.1,162.4l1.1-0.4 M642.2,162h-2.8 M639.4,162l1.8-0.6 M641.1,161.4l-2.3-0.3    M638.8,161.1l1.5-0.4 M640.3,160.7l-2.3-1.6 M638,159.1l2.4,0.5 M640.4,159.6l-0.5-1 M639.9,158.6l1.5,1.6 M641.5,160.2l0.5-1.2    M642,159l0.4,1.9 M642.4,160.9l0.2-1.3 M642.6,159.6l0.8,2.6"
   id="path36" />&#10;	<path
   class="st0"
   d="M656,160.2l3.6-5.9"
   id="path37" />&#10;	<path
   class="st0"
   d="M654.8,161.6l0.5-3.2 M655.3,158.4l0.4,1.2 M655.7,159.6l0.1-3.1 M655.8,156.5l0.9,1.9 M656.6,158.4l-0.1-3.2    M656.5,155.3l1.1,1.8 M657.5,157.1l0.1-2.1 M657.6,155l0.6,0.7 M658.2,155.7l0.5-1.8 M658.7,153.9l0.3,0.7 M659,154.6l1.3-1.3    M660.2,153.3l-0.5,1.7 M659.8,155l1.4,0.1 M661.1,155.1l-1.8,0.7 M659.3,155.7l1.2,0.4 M660.5,156.1l-2.1,0.7 M658.5,156.9l2,0.5    M660.5,157.4l-2.7,0.8 M657.8,158.2l1.3,0.5 M659.1,158.7l-2.2,0.9 M656.9,159.6l1.9,0.2 M658.8,159.8l-2.9,1.1 M655.9,160.9   l1.7,0.2 M657.5,161.1l-2.8,1.2"
   id="path38" />&#10;	<path
   class="st0"
   d="M659.2,168.8l7.2,3.2"
   id="path39" />&#10;	<path
   class="st0"
   d="M663.6,168.4l4-0.9"
   id="path40" />&#10;	<path
   class="st0"
   d="M652.8,172.8l-0.9,9.6"
   id="path41" />&#10;	<path
   class="st0"
   d="M658,168.1h3.4 M661.4,168.1l-0.9,0.5 M660.5,168.6h2.4 M662.8,168.6l-0.7,0.5 M662.1,169.1l2.8,0.5    M664.9,169.6l-1.8,0.1 M663.1,169.7l3.1,0.9 M666.2,170.6l-1.5,0.1 M664.7,170.7l3.4,1 M668.1,171.8l-1.3,0.2 M666.8,172l0.9,1.1    M667.7,173l-2.3-0.7 M665.4,172.3l0.4,0.9 M665.8,173.2l-1.3-1.6 M664.5,171.7l-0.3,0.9 M664.2,172.6l-1.1-1.7 M663,170.9   l-0.4,1.9 M662.6,172.8l-1-2.2 M661.6,170.6l-0.2,1.4 M661.4,172l-0.7-1.8 M660.7,170.1l-0.5,1 M660.1,171.1l-1.1-1.9 M659,169.3   l-0.4,1.1 M658.6,170.3l-0.1-1.2"
   id="path42" />&#10;	<path
   class="st0"
   d="M662.8,168l1.5-1.7 M664.3,166.4l0.1,1.3 M664.4,167.7l2.1-1.1 M666.5,166.6l-0.5,0.9 M665.9,167.4l2.7-0.7    M668.6,166.8l-0.5,0.9 M668.1,167.6l0.7,0.4 M668.8,168h-2.3 M666.6,168l1.6,0.9 M668.2,169l-3.3-0.3"
   id="path43" />&#10;	<path
   class="st0"
   d="M652,173l-1.5,0.5 M650.6,173.6l1.7,0.2 M652.2,173.8l-2.2,0.7 M650.1,174.4l2-0.1 M652.1,174.4l-3.5,1.2    M648.6,175.6l3-0.3 M651.6,175.3l-2.9,1.6 M648.7,176.9l3-0.8 M651.7,176.1l-2.1,2 M649.6,178.1l1.3-0.6 M651,177.5l-1.8,2.6    M649.1,180.1l2.4-1.7 M651.5,178.4l-2.8,3.7 M648.7,182.1l2.6-2 M651.3,180.1l-1.4,3.4 M649.9,183.5l1-1.2 M650.9,182.2l0.6,2.5    M651.5,184.7l0.4-1.7 M651.9,183.1l1.7,1.8 M653.6,184.9l-0.8-2.4 M652.8,182.4l1.3,0.2 M654.1,182.6l-1.1-1.8 M653,180.9l2,0.6    M654.9,181.5l-2.1-2 M652.8,179.6l2.5,1.1 M655.3,180.7l-2.4-2.3 M653,178.4l2.2,0.5 M655.1,178.9l-2-1.5 M653.2,177.5l2,0.1    M655.1,177.6l-2-2 M653.2,175.6l0.9,0.4 M654.1,176l-0.9-1.5"
   id="path44" />&#10;	<path
   class="st0"
   d="M422.3,191.5L422.3,191.5 M422.7,191.2L422.7,191.2 M423.3,190.8L423.3,190.8 M422.8,191.9L422.8,191.9    M423.3,191.5L423.3,191.5 M423.8,191.1L423.8,191.1 M423.3,192.3L423.3,192.3 M423.8,191.9L423.8,191.9 M422.2,191.2L422.2,191.2    M422.4,191.2L422.4,191.2 M422.7,191.2L422.7,191.2 M423.2,191.1L423.2,191.1 M423.4,191.1L423.4,191.1 M423.7,191L423.7,191    M422.5,192.2L422.5,192.2 M422.8,192.1L422.8,192.1 M423.1,192.1L423.1,192.1 M423.6,192L423.6,192 M423.8,192L423.8,192    M422.9,190.9L422.9,190.9 M423.7,191.4L423.7,191.4 M423.8,191.5L423.8,191.5 M422.5,191.4L422.5,191.4 M422.7,191.5L422.7,191.5    M423.2,191.9L423.2,191.9 M422.8,192.3L422.8,192.3 M423,192.4L423,192.4 M423,190.6L423,190.6 M423.3,190.9L423.3,190.9    M423.7,191.3L423.7,191.3 M423.8,191.3L423.8,191.3 M422.1,191.2L422.1,191.2 M422.5,191.6L422.5,191.6 M422.6,191.6L422.6,191.6    M422.9,191.9L422.9,191.9 M423.3,192.3L423.3,192.3 M423.4,192.4L423.4,192.4"
   id="path45" />&#10;	<path
   class="st0"
   d="M421.9,191.6L421.9,191.6 M422.4,191.3L422.4,191.3 M422.8,190.9L422.8,190.9 M422.4,192L422.4,192    M422.9,191.6L422.9,191.6 M423.4,191.3L423.4,191.3 M422.9,192.4L422.9,192.4 M423.4,192L423.4,192 M422.6,191L422.6,191    M422.8,190.9L422.8,190.9 M423.1,190.9L423.1,190.9 M422.1,192L422.1,192 M422.5,192L422.5,192 M423,191.9L423,191.9 M423.2,191.9   L423.2,191.9 M423.5,191.9L423.5,191.9 M422.5,191L422.5,191 M422.6,191.1L422.6,191.1 M423.2,191.5L423.2,191.5 M422,191.5   L422,191.5 M422.8,192L422.8,192 M422.9,192.1L422.9,192.1 M422.3,192.4L422.3,192.4 M423.1,191.1L423.1,191.1 M423.2,191.1   L423.2,191.1 M423.5,191.4L423.5,191.4 M422,191.5L422,191.5 M422.4,191.8L422.4,191.8 M422.7,192.1L422.7,192.1 M422.8,192.2   L422.8,192.2 M423.1,192.5L423.1,192.5"
   id="path46" />&#10;	<path
   class="st0"
   d="M421.9,192.4L421.9,192.4 M422.4,192L422.4,192 M422.9,191.6L422.9,191.6 M422.4,192.7L422.4,192.7    M422.9,192.4L422.9,192.4 M423.4,192L423.4,192 M422.9,193.1L422.9,193.1 M423.4,192.7L423.4,192.7 M422,192.1L422,192.1    M422.1,192L422.1,192 M422.5,192L422.5,192 M423,191.9L423,191.9 M423.2,191.9L423.2,191.9 M422.3,193L422.3,193 M422.5,193   L422.5,193 M422.8,192.9L422.8,192.9 M423.3,192.9L423.3,192.9 M422.8,192L422.8,192 M422.9,192.1L422.9,192.1 M421.8,192.1   L421.8,192.1 M422.3,192.4L422.3,192.4 M423.1,192.9L423.1,192.9 M421.9,192.9L421.9,192.9 M422.1,193L422.1,193 M422.4,191.8   L422.4,191.8 M422.7,192.1L422.7,192.1 M422.8,192.2L422.8,192.2 M423.1,192.5L423.1,192.5 M421.6,192.5L421.6,192.5 M422,192.8   L422,192.8 M422.4,193.2L422.4,193.2 M422.4,193.2L422.4,193.2"
   id="path47" />&#10;	<path
   class="st0"
   d="M464.1,185.5L464.1,185.5 M464.6,185.1L464.6,185.1 M465.1,184.7L465.1,184.7 M464.6,185.9L464.6,185.9    M465.1,185.5L465.1,185.5 M465.6,185.1L465.6,185.1 M465.1,186.2L465.1,186.2 M465.6,185.8L465.6,185.8 M464,185.2L464,185.2    M464.2,185.1L464.2,185.1 M464.5,185.1L464.5,185.1 M465,185L465,185 M465.3,185L465.3,185 M465.6,185L465.6,185 M464.4,186.1   L464.4,186.1 M464.6,186.1L464.6,186.1 M464.9,186L464.9,186 M465.4,186L465.4,186 M465.6,185.9L465.6,185.9 M464.8,184.8   L464.8,184.8 M465.5,185.3L465.5,185.3 M465.7,185.4L465.7,185.4 M464.3,185.3L464.3,185.3 M464.5,185.4L464.5,185.4 M465.1,185.8   L465.1,185.8 M464.6,186.3L464.6,186.3 M464.8,186.4L464.8,186.4 M464.8,184.5L464.8,184.5 M465.1,184.8L465.1,184.8 M465.5,185.2   L465.5,185.2 M465.6,185.2L465.6,185.2 M464,185.2L464,185.2 M464.4,185.5L464.4,185.5 M464.4,185.6L464.4,185.6 M464.8,185.9   L464.8,185.9 M465.1,186.2L465.1,186.2 M465.2,186.3L465.2,186.3"
   id="path48" />&#10;	<path
   class="st0"
   d="M463.7,185.6L463.7,185.6 M464.2,185.2L464.2,185.2 M464.6,184.8L464.6,184.8 M464.2,185.9L464.2,185.9    M464.7,185.6L464.7,185.6 M465.2,185.2L465.2,185.2 M464.7,186.3L464.7,186.3 M465.2,185.9L465.2,185.9 M464.5,184.9L464.5,184.9    M464.6,184.9L464.6,184.9 M465,184.8L465,184.8 M464,186L464,186 M464.3,185.9L464.3,185.9 M464.8,185.9L464.8,185.9 M465,185.8   L465,185.8 M465.3,185.8L465.3,185.8 M464.3,184.9L464.3,184.9 M464.5,185.1L464.5,185.1 M465,185.4L465,185.4 M463.9,185.4   L463.9,185.4 M464.6,185.9L464.6,185.9 M464.8,186L464.8,186 M464.2,186.4L464.2,186.4 M464.9,185L464.9,185 M465,185.1L465,185.1    M465.3,185.4L465.3,185.4 M463.8,185.4L463.8,185.4 M464.2,185.7L464.2,185.7 M464.5,186.1L464.5,186.1 M464.6,186.1L464.6,186.1    M465,186.4L465,186.4"
   id="path49" />&#10;	<path
   class="st0"
   d="M506,179.4L506,179.4 M506.5,179L506.5,179 M507,178.6L507,178.6 M506.5,179.8L506.5,179.8 M507,179.4   L507,179.4 M507.5,179L507.5,179 M507,180.1L507,180.1 M507.5,179.7L507.5,179.7 M505.9,179.1L505.9,179.1 M506.1,179.1   L506.1,179.1 M506.4,179L506.4,179 M506.9,179L506.9,179 M507.1,178.9L507.1,178.9 M507.5,178.9L507.5,178.9 M506.3,180L506.3,180    M506.5,180L506.5,180 M506.8,180L506.8,180 M507.3,179.9L507.3,179.9 M507.5,179.9L507.5,179.9 M506.6,178.8L506.6,178.8    M507.4,179.2L507.4,179.2 M507.6,179.3L507.6,179.3 M506.2,179.2L506.2,179.2 M506.4,179.3L506.4,179.3 M507,179.7L507,179.7    M506.5,180.2L506.5,180.2 M506.7,180.3L506.7,180.3 M506.7,178.4L506.7,178.4 M507,178.8L507,178.8 M507.4,179.1L507.4,179.1    M507.5,179.2L507.5,179.2 M505.9,179.1L505.9,179.1 M506.3,179.4L506.3,179.4 M506.3,179.5L506.3,179.5 M506.6,179.8L506.6,179.8    M507,180.1L507,180.1 M507.1,180.2L507.1,180.2"
   id="path50" />&#10;	<path
   class="st0"
   d="M505.6,179.5L505.6,179.5 M506.1,179.1L506.1,179.1 M506.5,178.8L506.5,178.8 M506.1,179.9L506.1,179.9    M506.6,179.5L506.6,179.5 M507.1,179.1L507.1,179.1 M506.6,180.2L506.6,180.2 M507.1,179.8L507.1,179.8 M506.3,178.8L506.3,178.8    M506.5,178.8L506.5,178.8 M506.8,178.8L506.8,178.8 M505.9,179.9L505.9,179.9 M506.2,179.8L506.2,179.8 M506.7,179.8L506.7,179.8    M506.9,179.8L506.9,179.8 M507.2,179.7L507.2,179.7 M506.2,178.9L506.2,178.9 M506.3,179L506.3,179 M506.9,179.4L506.9,179.4    M505.7,179.4L505.7,179.4 M506.5,179.8L506.5,179.8 M506.6,179.9L506.6,179.9 M506,180.3L506,180.3 M506.8,178.9L506.8,178.9    M506.9,179L506.9,179 M507.2,179.3L507.2,179.3 M505.7,179.3L505.7,179.3 M506.1,179.6L506.1,179.6 M506.4,180L506.4,180    M506.5,180.1L506.5,180.1 M506.8,180.4L506.8,180.4"
   id="path51" />&#10;	<path
   class="st0"
   d="M498.8,180.6L498.8,180.6 M499.3,180.2L499.3,180.2 M499.8,179.8L499.8,179.8 M499.3,181L499.3,181    M499.8,180.6L499.8,180.6 M500.3,180.2L500.3,180.2 M499.9,181.3L499.9,181.3 M500.3,180.9L500.3,180.9 M498.8,180.3L498.8,180.3    M499,180.3L499,180.3 M499.3,180.2L499.3,180.2 M499.8,180.1L499.8,180.1 M500,180.1L500,180.1 M500.3,180.1L500.3,180.1    M499.1,181.2L499.1,181.2 M499.3,181.2L499.3,181.2 M499.6,181.1L499.6,181.1 M500.1,181.1L500.1,181.1 M500.3,181.1L500.3,181.1    M499.5,179.9L499.5,179.9 M500.2,180.4L500.2,180.4 M500.4,180.5L500.4,180.5 M499,180.4L499,180.4 M499.2,180.5L499.2,180.5    M499.8,180.9L499.8,180.9 M499.4,181.4L499.4,181.4 M499.5,181.5L499.5,181.5 M499.5,179.6L499.5,179.6 M499.9,179.9L499.9,179.9    M500.2,180.3L500.2,180.3 M500.3,180.4L500.3,180.4 M498.7,180.3L498.7,180.3 M499.1,180.6L499.1,180.6 M499.2,180.7L499.2,180.7    M499.5,181L499.5,181 M499.9,181.3L499.9,181.3 M499.9,181.4L499.9,181.4"
   id="path52" />&#10;	<path
   class="st0"
   d="M498.4,180.7L498.4,180.7 M498.9,180.3L498.9,180.3 M499.4,179.9L499.4,179.9 M499,181L499,181 M499.4,180.7   L499.4,180.7 M499.9,180.3L499.9,180.3 M499.4,181.4L499.4,181.4 M500,181L500,181 M499.2,180L499.2,180 M499.4,180L499.4,180    M499.7,179.9L499.7,179.9 M498.7,181.1L498.7,181.1 M499,181L499,181 M499.5,181L499.5,181 M499.7,180.9L499.7,180.9 M500,180.9   L500,180.9 M499,180.1L499,180.1 M499.2,180.2L499.2,180.2 M499.8,180.5L499.8,180.5 M498.6,180.5L498.6,180.5 M499.3,181   L499.3,181 M499.5,181.1L499.5,181.1 M498.9,181.5L498.9,181.5 M499.6,180.1L499.6,180.1 M499.7,180.2L499.7,180.2 M500,180.5   L500,180.5 M498.6,180.5L498.6,180.5 M498.9,180.8L498.9,180.8 M499.3,181.2L499.3,181.2 M499.4,181.2L499.4,181.2 M499.7,181.5   L499.7,181.5"
   id="path53" />&#10;	<path
   class="st0"
   d="M547.9,173.3L547.9,173.3 M548.4,172.9L548.4,172.9 M548.9,172.6L548.9,172.6 M548.4,173.7L548.4,173.7    M548.9,173.3L548.9,173.3 M549.4,172.9L549.4,172.9 M549,174L549,174 M549.5,173.6L549.5,173.6 M547.9,173L547.9,173 M548.1,173   L548.1,173 M548.4,172.9L548.4,172.9 M548.9,172.9L548.9,172.9 M549.1,172.9L549.1,172.9 M549.4,172.8L549.4,172.8 M548.2,173.9   L548.2,173.9 M548.4,173.9L548.4,173.9 M548.7,173.9L548.7,173.9 M549.2,173.8L549.2,173.8 M549.4,173.8L549.4,173.8 M548.6,172.7   L548.6,172.7 M549.3,173.1L549.3,173.1 M549.5,173.3L549.5,173.3 M548.2,173.2L548.2,173.2 M548.3,173.3L548.3,173.3 M548.9,173.6   L548.9,173.6 M548.5,174.1L548.5,174.1 M548.6,174.2L548.6,174.2 M548.6,172.4L548.6,172.4 M549,172.7L549,172.7 M549.3,173   L549.3,173 M549.4,173.1L549.4,173.1 M547.8,173L547.8,173 M548.2,173.4L548.2,173.4 M548.3,173.4L548.3,173.4 M548.6,173.7   L548.6,173.7 M549,174.1L549,174.1 M549,174.1L549,174.1"
   id="path54" />&#10;	<path
   class="st0"
   d="M547.5,173.4L547.5,173.4 M548,173L548,173 M548.5,172.7L548.5,172.7 M548.1,173.8L548.1,173.8 M548.5,173.4   L548.5,173.4 M549,173L549,173 M548.5,174.1L548.5,174.1 M549,173.8L549,173.8 M548.3,172.8L548.3,172.8 M548.5,172.7L548.5,172.7    M548.8,172.7L548.8,172.7 M547.8,173.8L547.8,173.8 M548.1,173.8L548.1,173.8 M548.6,173.7L548.6,173.7 M548.8,173.7L548.8,173.7    M549.2,173.6L549.2,173.6 M548.1,172.8L548.1,172.8 M548.3,172.9L548.3,172.9 M548.9,173.3L548.9,173.3 M547.7,173.3L547.7,173.3    M548.4,173.8L548.4,173.8 M548.6,173.9L548.6,173.9 M548,174.2L548,174.2 M548.8,172.9L548.8,172.9 M548.8,172.9L548.8,172.9    M549.2,173.2L549.2,173.2 M547.7,173.3L547.7,173.3 M548,173.6L548,173.6 M548.4,173.9L548.4,173.9 M548.5,174L548.5,174    M548.8,174.3L548.8,174.3"
   id="path55" />&#10;	<path
   class="st0"
   d="M547.6,174.1L547.6,174.1 M548.1,173.8L548.1,173.8 M548.5,173.4L548.5,173.4 M548.1,174.5L548.1,174.5    M548.5,174.1L548.5,174.1 M549,173.8L549,173.8 M548.6,174.9L548.6,174.9 M549.1,174.5L549.1,174.5 M547.6,173.8L547.6,173.8    M547.8,173.8L547.8,173.8 M548.1,173.8L548.1,173.8 M548.6,173.7L548.6,173.7 M548.8,173.7L548.8,173.7 M548,174.8L548,174.8    M548.2,174.7L548.2,174.7 M548.5,174.7L548.5,174.7 M549,174.6L549,174.6 M548.4,173.8L548.4,173.8 M548.6,173.9L548.6,173.9    M547.4,173.9L547.4,173.9 M548,174.2L548,174.2 M548.8,174.7L548.8,174.7 M547.6,174.7L547.6,174.7 M547.7,174.8L547.7,174.8    M548,173.6L548,173.6 M548.4,173.9L548.4,173.9 M548.5,174L548.5,174 M548.8,174.3L548.8,174.3 M547.3,174.3L547.3,174.3    M547.7,174.6L547.7,174.6 M548,174.9L548,174.9 M548.1,175L548.1,175"
   id="path56" />&#10;	<path
   class="st0"
   d="M540.8,174.5L540.8,174.5 M541.2,174.1L541.2,174.1 M541.8,173.7L541.8,173.7 M541.3,174.9L541.3,174.9    M541.8,174.5L541.8,174.5 M542.3,174.1L542.3,174.1 M541.8,175.2L541.8,175.2 M542.3,174.8L542.3,174.8 M540.7,174.2L540.7,174.2    M540.9,174.2L540.9,174.2 M541.2,174.1L541.2,174.1 M541.7,174.1L541.7,174.1 M541.9,174L541.9,174 M542.3,174L542.3,174    M541.1,175.1L541.1,175.1 M541.3,175.1L541.3,175.1 M541.6,175.1L541.6,175.1 M542.1,175L542.1,175 M542.3,175L542.3,175    M541.4,173.9L541.4,173.9 M542.2,174.3L542.2,174.3 M542.3,174.4L542.3,174.4 M541,174.3L541,174.3 M541.2,174.4L541.2,174.4    M541.8,174.8L541.8,174.8 M541.3,175.3L541.3,175.3 M541.5,175.4L541.5,175.4 M541.5,173.6L541.5,173.6 M541.8,173.9L541.8,173.9    M542.2,174.2L542.2,174.2 M542.3,174.3L542.3,174.3 M540.7,174.2L540.7,174.2 M541,174.5L541,174.5 M541.1,174.6L541.1,174.6    M541.4,174.9L541.4,174.9 M541.8,175.3L541.8,175.3 M541.9,175.3L541.9,175.3"
   id="path57" />&#10;	<path
   class="st0"
   d="M540.4,174.6L540.4,174.6 M540.9,174.2L540.9,174.2 M541.3,173.9L541.3,173.9 M540.9,174.9L540.9,174.9    M541.4,174.6L541.4,174.6 M541.9,174.2L541.9,174.2 M541.4,175.3L541.4,175.3 M541.9,174.9L541.9,174.9 M541.1,173.9L541.1,173.9    M541.3,173.9L541.3,173.9 M541.6,173.9L541.6,173.9 M540.7,175L540.7,175 M541,174.9L541,174.9 M541.5,174.9L541.5,174.9    M541.7,174.9L541.7,174.9 M542,174.8L542,174.8 M541,174L541,174 M541.1,174.1L541.1,174.1 M541.7,174.4L541.7,174.4 M540.5,174.4   L540.5,174.4 M541.3,174.9L541.3,174.9 M541.5,175L541.5,175 M540.8,175.4L540.8,175.4 M541.6,174L541.6,174 M541.7,174.1   L541.7,174.1 M542,174.4L542,174.4 M540.5,174.4L540.5,174.4 M540.9,174.7L540.9,174.7 M541.2,175.1L541.2,175.1 M541.3,175.1   L541.3,175.1 M541.6,175.4L541.6,175.4"
   id="path58" />&#10;	<path
   class="st0"
   d="M540.4,175.3L540.4,175.3 M540.9,174.9L540.9,174.9 M541.4,174.6L541.4,174.6 M540.9,175.7L540.9,175.7    M541.4,175.3L541.4,175.3 M541.9,174.9L541.9,174.9 M541.4,176.1L541.4,176.1 M541.9,175.7L541.9,175.7 M540.5,175L540.5,175    M540.7,175L540.7,175 M541,174.9L541,174.9 M541.5,174.9L541.5,174.9 M541.7,174.9L541.7,174.9 M540.8,175.9L540.8,175.9    M541,175.9L541,175.9 M541.3,175.9L541.3,175.9 M541.8,175.8L541.8,175.8 M541.3,174.9L541.3,174.9 M541.5,175L541.5,175    M540.3,175L540.3,175 M540.8,175.4L540.8,175.4 M541.6,175.9L541.6,175.9 M540.4,175.9L540.4,175.9 M540.6,176L540.6,176    M540.9,174.7L540.9,174.7 M541.2,175.1L541.2,175.1 M541.3,175.1L541.3,175.1 M541.6,175.4L541.6,175.4 M540.2,175.5L540.2,175.5    M540.5,175.8L540.5,175.8 M540.9,176.1L540.9,176.1 M540.9,176.2L540.9,176.2"
   id="path59" />&#10;	<path
   class="st0"
   d="M589.8,167.2L589.8,167.2 M590.2,166.9L590.2,166.9 M590.7,166.5L590.7,166.5 M590.3,167.6L590.3,167.6    M590.8,167.2L590.8,167.2 M591.3,166.9L591.3,166.9 M590.8,168L590.8,168 M591.3,167.6L591.3,167.6 M589.7,166.9L589.7,166.9    M589.9,166.9L589.9,166.9 M590.2,166.9L590.2,166.9 M590.7,166.8L590.7,166.8 M590.9,166.8L590.9,166.8 M591.2,166.7L591.2,166.7    M590,167.9L590,167.9 M590.2,167.9L590.2,167.9 M590.5,167.8L590.5,167.8 M591.1,167.8L591.1,167.8 M591.3,167.7L591.3,167.7    M590.4,166.6L590.4,166.6 M591.2,167.1L591.2,167.1 M591.3,167.2L591.3,167.2 M590,167.1L590,167.1 M590.2,167.2L590.2,167.2    M590.7,167.6L590.7,167.6 M590.3,168L590.3,168 M590.5,168.1L590.5,168.1 M590.5,166.3L590.5,166.3 M590.8,166.6L590.8,166.6    M591.2,166.9L591.2,166.9 M591.2,167L591.2,167 M589.6,166.9L589.6,166.9 M590,167.3L590,167.3 M590.1,167.4L590.1,167.4    M590.4,167.6L590.4,167.6 M590.8,168L590.8,168 M590.9,168.1L590.9,168.1"
   id="path60" />&#10;	<path
   class="st0"
   d="M589.4,167.3L589.4,167.3 M589.9,167L589.9,167 M590.3,166.6L590.3,166.6 M589.9,167.7L589.9,167.7    M590.3,167.3L590.3,167.3 M590.8,166.9L590.8,166.9 M590.4,168.1L590.4,168.1 M590.9,167.7L590.9,167.7 M590.1,166.7L590.1,166.7    M590.3,166.7L590.3,166.7 M590.6,166.6L590.6,166.6 M589.6,167.7L589.6,167.7 M590,167.7L590,167.7 M590.5,167.6L590.5,167.6    M590.7,167.6L590.7,167.6 M591,167.6L591,167.6 M590,166.7L590,166.7 M590.1,166.8L590.1,166.8 M590.7,167.2L590.7,167.2    M589.5,167.2L589.5,167.2 M590.3,167.7L590.3,167.7 M590.4,167.8L590.4,167.8 M589.8,168.1L589.8,168.1 M590.6,166.8L590.6,166.8    M590.7,166.8L590.7,166.8 M591,167.1L591,167.1 M589.5,167.2L589.5,167.2 M589.8,167.5L589.8,167.5 M590.2,167.8L590.2,167.8    M590.3,167.9L590.3,167.9 M590.6,168.2L590.6,168.2"
   id="path61" />&#10;	<path
   class="st0"
   d="M589.4,168.1L589.4,168.1 M589.9,167.7L589.9,167.7 M590.3,167.3L590.3,167.3 M589.9,168.4L589.9,168.4    M590.4,168.1L590.4,168.1 M590.9,167.7L590.9,167.7 M590.4,168.8L590.4,168.8 M590.9,168.4L590.9,168.4 M589.4,167.8L589.4,167.8    M589.6,167.7L589.6,167.7 M590,167.7L590,167.7 M590.5,167.6L590.5,167.6 M590.7,167.6L590.7,167.6 M589.8,168.7L589.8,168.7    M590,168.7L590,168.7 M590.3,168.6L590.3,168.6 M590.8,168.6L590.8,168.6 M590.3,167.7L590.3,167.7 M590.4,167.8L590.4,167.8    M589.2,167.8L589.2,167.8 M589.8,168.1L589.8,168.1 M590.6,168.6L590.6,168.6 M589.4,168.6L589.4,168.6 M589.5,168.7L589.5,168.7    M589.8,167.5L589.8,167.5 M590.2,167.8L590.2,167.8 M590.3,167.9L590.3,167.9 M590.6,168.2L590.6,168.2 M589.1,168.2L589.1,168.2    M589.5,168.5L589.5,168.5 M589.8,168.9L589.8,168.9 M589.9,168.9L589.9,168.9"
   id="path62" />&#10;	<path
   class="st0"
   d="M244.4,177.5L244.4,177.5"
   id="path63" />&#10;	<path
   class="st0"
   d="M730.1,470.8L730.1,470.8"
   id="path64" />&#10;	<path
   class="st0"
   d="M730.8,473L730.8,473"
   id="path65" />&#10;	<path
   class="st1"
   d="M48,87.9l30.1,22.3 M78.1,110.3l13.7,10.6 M91.8,120.9l13,10.4 M104.8,131.2l29.9,25 M134.7,156.2l22.7,20.1    M157.4,176.3l16.4,15.1 M173.8,191.5l11,10.5 M184.8,201.9l37.3,37.4 M222.1,239.4l19.4,20.8 M241.5,260.2l12.8,13.8 M254.3,274   l9.6,11.5 M263.9,285.5l19.5,23.2 M283.5,308.7l12.1,15 M295.6,323.7l14.8,18.2 M310.4,341.9l10.8,15.1 M321.2,357.1l25,35.1    M346.2,392.2l13.5,20.1 M359.8,412.3l11.5,17.8 M371.3,430.1l7.8,12.4 M379.1,442.5l31.2,53.3 M410.3,495.8l24.4,46.6    M434.7,542.4l14.7,30.5 M449.4,572.9l11.5,25.4 M460.9,598.3l276.8-86.9"
   id="path66" />&#10;	<path
   class="st2"
   d="M196.9,213.3l9.9-1.2l0.2,1.7l-9.9,1.2L196.9,213.3z"
   id="path67" />&#10;	<path
   class="st3"
   d="M210.9,211.1l-1.1,2 M209.8,213.1l2-0.2 M210.9,211.1l0.3,2.8 M213,210.8l-0.4,0.2 M212.6,211l-0.2,0.4    M212.4,211.4l-0.1,0.7 M212.4,212.1l0,0.4 M212.4,212.5l0.2,0.6 M212.6,213.1l0.3,0.4 M212.9,213.5l0.4,0.1 M213.3,213.6l0.3,0    M213.6,213.6l0.4-0.2 M214,213.4l0.2-0.4 M214.2,212.9l0.1-0.7 M214.3,212.3l-0.1-0.4 M214.2,211.9l-0.2-0.6 M214,211.2l-0.3-0.4    M213.7,210.9l-0.4-0.1 M213.3,210.8l-0.3,0"
   id="path68" />&#10;	<path
   class="st2"
   d="M218,210.8l14-1.7l0.2,1.7l-14,1.7L218,210.8z"
   id="path69" />&#10;	<path
   class="st3"
   d="M236.1,208.1l-1.1,2 M235,210.1l2-0.2 M236.1,208.1l0.3,2.8 M238.2,207.8l-0.4,0.2 M237.8,208l-0.2,0.4    M237.6,208.4l0,0.7 M237.6,209.1l0,0.4 M237.6,209.5l0.2,0.6 M237.8,210.1l0.3,0.4 M238.1,210.5l0.4,0.1 M238.6,210.6l0.3,0    M238.8,210.6l0.4-0.2 M239.2,210.4l0.2-0.4 M239.4,210l0.1-0.7 M239.5,209.3l-0.1-0.4 M239.4,208.9l-0.2-0.7 M239.2,208.2   l-0.3-0.4 M238.9,207.9l-0.4-0.1 M238.5,207.8l-0.3,0"
   id="path70" />&#10;	<path
   class="st2"
   d="M243.2,207.8l14-1.7l0.2,1.7l-14,1.7L243.2,207.8z"
   id="path71" />&#10;	<path
   class="st3"
   d="M261.3,205.1l-1.1,2 M260.2,207.1l2-0.2 M261.3,205.1l0.3,2.8 M263.5,204.8l-0.4,0.2 M263.1,205l-0.2,0.4    M262.8,205.4l0,0.7 M262.8,206.1l0,0.4 M262.8,206.5l0.2,0.6 M263,207.1l0.3,0.4 M263.4,207.5l0.4,0.1 M263.8,207.6l0.3,0    M264,207.6l0.4-0.2 M264.4,207.4l0.2-0.4 M264.6,207l0.1-0.7 M264.7,206.3l0-0.4 M264.7,205.9l-0.2-0.7 M264.5,205.2l-0.3-0.4    M264.1,204.9l-0.4-0.1 M263.7,204.8l-0.3,0"
   id="path72" />&#10;	<path
   class="st2"
   d="M268.5,204.8l14-1.7l0.2,1.7l-14,1.7L268.5,204.8z"
   id="path73" />&#10;	<path
   class="st3"
   d="M286.5,202.1l-1.1,2 M285.4,204.1l2-0.2 M286.5,202.1l0.3,2.8 M288.7,201.8l-0.4,0.2 M288.3,202l-0.2,0.4    M288.1,202.4l0,0.7 M288,203.1l0,0.4 M288.1,203.5l0.2,0.7 M288.3,204.2l0.3,0.4 M288.6,204.5l0.4,0.1 M289,204.6l0.3,0    M289.3,204.6l0.4-0.2 M289.6,204.4l0.2-0.4 M289.9,204l0.1-0.7 M289.9,203.3l0-0.4 M289.9,202.9l-0.2-0.6 M289.7,202.2l-0.3-0.4    M289.4,201.9l-0.4-0.1 M288.9,201.8l-0.3,0"
   id="path74" />&#10;	<path
   class="st2"
   d="M293.7,201.8l14-1.7l0.2,1.7l-14,1.7L293.7,201.8z"
   id="path75" />&#10;	<path
   class="st3"
   d="M311.8,199.1l-1.1,2 M310.6,201.1l2-0.2 M311.8,199.1l0.3,2.8 M313.9,198.8l-0.4,0.2 M313.5,199l-0.2,0.4    M313.3,199.4l0,0.7 M313.2,200.1l0,0.4 M313.3,200.5l0.2,0.6 M313.5,201.2l0.3,0.4 M313.8,201.5l0.4,0.1 M314.2,201.6l0.3,0    M314.5,201.6l0.4-0.2 M314.9,201.4l0.2-0.4 M315.1,201l0.1-0.7 M315.1,200.3l0-0.4 M315.1,199.9l-0.2-0.6 M314.9,199.2l-0.3-0.4    M314.6,198.9l-0.4-0.1 M314.1,198.8l-0.3,0"
   id="path76" />&#10;	<path
   class="st2"
   d="M318.9,198.8l14-1.7l0.2,1.7l-14,1.7L318.9,198.8z"
   id="path77" />&#10;	<path
   class="st3"
   d="M337,196.1l-1.1,2 M335.9,198.1l2-0.2 M337,196.1l0.3,2.8 M339.1,195.8l-0.4,0.2 M338.7,196l-0.2,0.4    M338.5,196.4l0,0.7 M338.5,197.1l0,0.4 M338.5,197.5l0.2,0.6 M338.7,198.2l0.3,0.4 M339,198.5l0.4,0.1 M339.4,198.6l0.3,0    M339.7,198.6l0.4-0.2 M340.1,198.4l0.2-0.4 M340.3,198l0-0.7 M340.4,197.3l0-0.4 M340.3,196.9l-0.2-0.6 M340.1,196.3l-0.3-0.4    M339.8,195.9l-0.4-0.1 M339.4,195.8l-0.3,0"
   id="path78" />&#10;	<path
   class="st2"
   d="M344.1,195.8l9.9-1.2l0.2,1.7l-9.9,1.2L344.1,195.8z"
   id="path79" />&#10;	<path
   class="st4"
   d="M354,194.6l11.3-1.3l0.2,1.7l-11.3,1.3L354,194.6z"
   id="path80" />&#10;	<path
   class="st5"
   d="M369.7,192.2l-1.3,0.2 M368.3,192.4l0,1.2 M368.4,193.6l0.1-0.2 M368.5,193.4l0.4-0.2 M368.9,193.2l0.4-0.1    M369.3,193.2l0.4,0.1 M369.7,193.3l0.3,0.2 M370,193.5l0.2,0.4 M370.1,193.9l0,0.3 M370.2,194.2l-0.1,0.4 M370.1,194.6l-0.2,0.3    M369.9,194.9l-0.4,0.2 M369.5,195.1l-0.4,0.1 M369.1,195.1l-0.4-0.1 M368.7,195l-0.1-0.1 M368.5,194.9l-0.2-0.3 M371.5,192   l-0.4,0.2 M371.2,192.2l-0.2,0.4 M370.9,192.6l0,0.7 M370.9,193.3l0,0.4 M370.9,193.7l0.2,0.7 M371.1,194.3l0.3,0.4 M371.5,194.7   l0.4,0.1 M371.9,194.8l0.3,0 M372.1,194.8l0.4-0.2 M372.5,194.6l0.2-0.4 M372.8,194.1l0-0.7 M372.8,193.4l0-0.4 M372.8,193.1   l-0.2-0.7 M372.5,192.4l-0.3-0.4 M372.2,192l-0.4-0.1 M371.8,191.9l-0.3,0"
   id="path81" />&#10;	<path
   class="st4"
   d="M376.5,191.9l14-1.7l0.2,1.7l-14,1.7L376.5,191.9z"
   id="path82" />&#10;	<path
   class="st5"
   d="M394.9,189.2l-1.3,0.2 M393.6,189.4l0,1.2 M393.6,190.6l0.1-0.2 M393.7,190.4l0.4-0.2 M394.1,190.3l0.4-0.1    M394.5,190.2l0.4,0.1 M394.9,190.3l0.3,0.2 M395.2,190.5l0.2,0.4 M395.4,190.9l0,0.3 M395.4,191.2l-0.1,0.4 M395.3,191.6l-0.2,0.3    M395.1,191.9l-0.4,0.2 M394.7,192.1l-0.4,0 M394.3,192.1l-0.4-0.1 M393.9,192l-0.1-0.1 M393.7,191.9l-0.2-0.3 M396.8,189l-0.4,0.2    M396.4,189.2l-0.2,0.4 M396.2,189.6l-0.1,0.7 M396.1,190.3l0,0.4 M396.1,190.7l0.2,0.7 M396.4,191.3l0.3,0.4 M396.7,191.7l0.4,0.1    M397.1,191.8l0.3,0 M397.4,191.8l0.4-0.2 M397.8,191.6l0.2-0.4 M398,191.1l0-0.7 M398,190.5l0-0.4 M398,190.1l-0.2-0.7    M397.8,189.4l-0.3-0.4 M397.5,189l-0.4-0.1 M397,188.9l-0.3,0"
   id="path83" />&#10;	<path
   class="st4"
   d="M401.8,189l14-1.7l0.2,1.7l-14,1.7L401.8,189z"
   id="path84" />&#10;	<path
   class="st5"
   d="M420.1,186.2l-1.3,0.2 M418.8,186.4l0,1.2 M418.8,187.6l0.1-0.1 M418.9,187.4l0.4-0.2 M419.3,187.3l0.4,0    M419.7,187.2l0.4,0.1 M420.1,187.3l0.3,0.2 M420.4,187.5l0.2,0.4 M420.6,187.9l0,0.3 M420.6,188.2l-0.1,0.4 M420.5,188.6l-0.2,0.3    M420.3,188.9l-0.4,0.2 M419.9,189.1l-0.4,0 M419.5,189.1l-0.4-0.1 M419.1,189l-0.1-0.1 M419,188.9l-0.2-0.3 M422,186l-0.4,0.2    M421.6,186.2l-0.2,0.4 M421.4,186.6l-0.1,0.7 M421.3,187.3l0,0.4 M421.4,187.7l0.2,0.7 M421.6,188.3l0.3,0.4 M421.9,188.7l0.4,0.1    M422.3,188.8l0.3,0 M422.6,188.8l0.4-0.2 M423,188.6l0.2-0.4 M423.2,188.1l0-0.7 M423.2,187.5l0-0.4 M423.2,187.1l-0.2-0.6    M423,186.4l-0.3-0.4 M422.7,186l-0.4-0.1 M422.3,186l-0.3,0"
   id="path85" />&#10;	<path
   class="st4"
   d="M427,186l14-1.7l0.2,1.7l-14,1.7L427,186z"
   id="path86" />&#10;	<path
   class="st5"
   d="M445.3,183.2l-1.3,0.1 M444,183.4l0,1.2 M444,184.6l0.1-0.1 M444.1,184.4l0.4-0.2 M444.5,184.3l0.4,0    M444.9,184.2l0.4,0.1 M445.3,184.3l0.3,0.2 M445.6,184.5l0.2,0.4 M445.8,184.9l0,0.3 M445.8,185.2l-0.1,0.4 M445.8,185.6l-0.2,0.3    M445.5,185.9l-0.4,0.2 M445.1,186.1l-0.4,0.1 M444.7,186.1l-0.4-0.1 M444.3,186l-0.1-0.1 M444.2,185.9l-0.2-0.3 M447.2,183   l-0.4,0.2 M446.8,183.2l-0.2,0.4 M446.6,183.6l-0.1,0.7 M446.5,184.3l0,0.4 M446.6,184.7l0.2,0.6 M446.8,185.3l0.3,0.4    M447.1,185.7l0.4,0.1 M447.5,185.8l0.3,0 M447.8,185.8l0.4-0.2 M448.2,185.6l0.2-0.4 M448.4,185.1l0-0.7 M448.5,184.5l0-0.4    M448.4,184.1l-0.2-0.7 M448.2,183.4l-0.3-0.4 M447.9,183.1l-0.4-0.1 M447.5,183l-0.3,0"
   id="path87" />&#10;	<path
   class="st4"
   d="M452.2,183l14-1.7l0.2,1.7l-14,1.7L452.2,183z"
   id="path88" />&#10;	<path
   class="st5"
   d="M470.6,180.2l-1.3,0.2 M469.2,180.4l0,1.2 M469.2,181.6l0.1-0.2 M469.4,181.4l0.4-0.2 M469.7,181.3l0.4-0.1    M470.1,181.2l0.4,0.1 M470.5,181.3l0.3,0.2 M470.9,181.5l0.2,0.4 M471,181.9l0,0.3 M471.1,182.2l-0.1,0.4 M471,182.6l-0.2,0.3    M470.7,182.9l-0.4,0.2 M470.4,183.1l-0.4,0 M470,183.1l-0.4-0.1 M469.5,183.1l-0.1-0.1 M469.4,182.9l-0.2-0.3 M472.4,180l-0.4,0.2    M472,180.2l-0.2,0.4 M471.8,180.6l-0.1,0.7 M471.8,181.3l0,0.4 M471.8,181.7l0.2,0.7 M472,182.4l0.3,0.4 M472.3,182.7l0.4,0.1    M472.8,182.8l0.3,0 M473,182.8l0.4-0.2 M473.4,182.6l0.2-0.4 M473.6,182.2l0-0.7 M473.7,181.5l0-0.4 M473.6,181.1l-0.2-0.7    M473.4,180.4l-0.3-0.4 M473.1,180.1l-0.4-0.1 M472.7,180l-0.3,0"
   id="path89" />&#10;	<path
   class="st4"
   d="M477.4,180l11.3-1.3l0.2,1.7l-11.3,1.3L477.4,180z"
   id="path90" />&#10;	<path
   class="st6"
   d="M488.7,178.6l7.9-0.9l0.2,1.7l-7.8,0.9L488.7,178.6z"
   id="path91" />&#10;	<path
   class="st7"
   d="M501,177l-0.2-0.3 M500.8,176.8l-0.4-0.1 M500.4,176.7l-0.3,0 M500.1,176.7l-0.4,0.2 M499.7,176.9l-0.2,0.4    M499.5,177.3l-0.1,0.7 M499.5,178l0.1,0.7 M499.5,178.7l0.2,0.5 M499.7,179.2l0.3,0.2 M500,179.4l0.4,0.1 M500.4,179.5l0.1,0    M500.6,179.5l0.4-0.2 M501,179.3l0.2-0.3 M501.2,179l0.1-0.4 M501.3,178.6l0-0.1 M501.3,178.5l-0.2-0.4 M501.1,178.1l-0.3-0.2    M500.8,177.9l-0.4-0.1 M500.4,177.8l-0.1,0 M500.2,177.8l-0.4,0.2 M499.9,178l-0.2,0.3 M499.6,178.3l-0.1,0.4 M502.2,176.5   l1.5-0.2 M503.7,176.3l-0.7,1.2 M503,177.4l0.4-0.1 M503.4,177.4l0.3,0.1 M503.7,177.5l0.1,0.1 M503.9,177.6l0.2,0.4 M504,178   l0,0.3 M504.1,178.3l-0.1,0.4 M504,178.7l-0.2,0.3 M503.8,179l-0.4,0.2 M503.4,179.2l-0.4,0 M503,179.2l-0.4-0.1 M502.6,179.1   l-0.1-0.1 M502.4,179l-0.2-0.3"
   id="path92" />&#10;	<path
   class="st6"
   d="M507.8,176.4l14-1.7l0.2,1.7l-14,1.7L507.8,176.4z"
   id="path93" />&#10;	<path
   class="st7"
   d="M526.2,174l-0.2-0.3 M526,173.8l-0.4-0.1 M525.6,173.7l-0.3,0 M525.3,173.7l-0.4,0.2 M524.9,173.9l-0.2,0.4    M524.7,174.3l-0.1,0.7 M524.7,175l0.1,0.7 M524.8,175.7l0.2,0.5 M525,176.2l0.3,0.2 M525.3,176.4l0.4,0.1 M525.7,176.5l0.1,0    M525.8,176.5l0.4-0.2 M526.2,176.3l0.2-0.3 M526.4,176l0.1-0.4 M526.5,175.6l0-0.1 M526.5,175.5l-0.2-0.4 M526.3,175.1l-0.3-0.2    M526,174.9l-0.4-0.1 M525.6,174.8l-0.1,0 M525.5,174.8l-0.4,0.2 M525.1,175l-0.2,0.3 M524.8,175.3l-0.1,0.4 M527.5,173.5l1.5-0.2    M528.9,173.3l-0.7,1.2 M528.3,174.4l0.4,0 M528.7,174.4l0.3,0.1 M528.9,174.5l0.2,0.1 M529.1,174.6l0.2,0.4 M529.3,175l0,0.3    M529.3,175.3l-0.1,0.4 M529.2,175.7L529,176 M529,176l-0.4,0.2 M528.6,176.2l-0.4,0.1 M528.2,176.2l-0.4-0.1 M527.8,176.1   l-0.2-0.1 M527.6,176l-0.2-0.3"
   id="path94" />&#10;	<path
   class="st6"
   d="M533,173.4l14-1.7l0.2,1.7l-14,1.7L533,173.4z"
   id="path95" />&#10;	<path
   class="st7"
   d="M551.4,171l-0.2-0.3 M551.2,170.8l-0.4-0.1 M550.8,170.7l-0.3,0 M550.5,170.7l-0.4,0.2 M550.2,170.9l-0.2,0.4    M549.9,171.3l0,0.7 M549.9,172l0.1,0.7 M550,172.7l0.2,0.5 M550.2,173.2l0.3,0.2 M550.5,173.4l0.4,0.1 M550.9,173.5l0.1,0    M551,173.5l0.4-0.2 M551.4,173.3l0.2-0.3 M551.6,173l0.1-0.4 M551.7,172.6l0-0.1 M551.7,172.5l-0.2-0.4 M551.5,172.1l-0.3-0.2    M551.2,171.9l-0.4-0.1 M550.8,171.8l-0.1,0 M550.7,171.8l-0.4,0.2 M550.3,172l-0.2,0.3 M550.1,172.3l-0.1,0.4 M552.7,170.5   l1.5-0.2 M554.2,170.3l-0.7,1.2 M553.5,171.5l0.4-0.1 M553.9,171.4l0.3,0.1 M554.2,171.5l0.2,0.1 M554.3,171.6l0.2,0.4 M554.5,172   l0,0.3 M554.5,172.3l-0.1,0.4 M554.4,172.7l-0.2,0.3 M554.2,173l-0.4,0.2 M553.8,173.2l-0.4,0.1 M553.4,173.2l-0.4-0.1 M553,173.1   l-0.2-0.1 M552.8,173l-0.2-0.3"
   id="path96" />&#10;	<path
   class="st6"
   d="M558.2,170.4l14-1.7l0.2,1.7l-14,1.7L558.2,170.4z"
   id="path97" />&#10;	<path
   class="st7"
   d="M576.6,168l-0.2-0.3 M576.5,167.8l-0.4-0.1 M576,167.7l-0.3,0 M575.8,167.7l-0.4,0.2 M575.4,167.9l-0.2,0.4    M575.2,168.4l0,0.7 M575.1,169l0.1,0.7 M575.2,169.7l0.2,0.5 M575.4,170.2l0.3,0.2 M575.7,170.4l0.4,0.1 M576.1,170.5l0.1,0    M576.2,170.5l0.4-0.2 M576.6,170.3l0.2-0.3 M576.8,170l0.1-0.4 M576.9,169.6l0-0.1 M576.9,169.5l-0.2-0.4 M576.7,169.1l-0.3-0.2    M576.4,168.9l-0.4-0.1 M576,168.8l-0.1,0 M575.9,168.8l-0.4,0.2 M575.5,169l-0.2,0.3 M575.3,169.3l-0.1,0.4 M577.9,167.5l1.5-0.2    M579.4,167.3l-0.7,1.2 M578.7,168.5l0.4-0.1 M579.1,168.4l0.3,0.1 M579.4,168.5l0.2,0.1 M579.5,168.6l0.2,0.4 M579.7,169l0,0.3    M579.7,169.3l-0.1,0.4 M579.7,169.7l-0.2,0.3 M579.4,170l-0.4,0.2 M579,170.2l-0.4,0 M578.6,170.2l-0.4-0.1 M578.2,170.1l-0.1-0.1    M578.1,170l-0.2-0.3"
   id="path98" />&#10;	<path
   class="st7"
   d="M601.8,165l-0.2-0.3 M601.7,164.8l-0.4-0.1 M601.3,164.7l-0.3,0 M601,164.7l-0.4,0.2 M600.6,164.9l-0.2,0.4    M600.4,165.4l0,0.7 M600.3,166l0.1,0.7 M600.4,166.7l0.2,0.5 M600.6,167.2l0.3,0.2 M600.9,167.4l0.4,0.1 M601.3,167.5l0.1,0    M601.5,167.5l0.4-0.2 M601.8,167.3l0.2-0.3 M602.1,167.1l0.1-0.4 M602.2,166.6l0-0.1 M602.1,166.5l-0.2-0.4 M602,166.1l-0.3-0.2    M601.7,165.9l-0.4-0.1 M601.3,165.8l-0.1,0 M601.1,165.8l-0.4,0.2 M600.7,166l-0.2,0.3 M600.5,166.3l-0.1,0.4 M603.1,164.5   l1.5-0.2 M604.6,164.3l-0.7,1.2 M603.9,165.5l0.4,0 M604.3,165.4l0.3,0.1 M604.6,165.5l0.2,0.1 M604.8,165.6l0.2,0.4 M604.9,166   l0,0.3 M605,166.3l-0.1,0.4 M604.9,166.7l-0.2,0.3 M604.6,167l-0.4,0.2 M604.3,167.2l-0.4,0.1 M603.9,167.2l-0.4-0.1 M603.4,167.1   l-0.2-0.1 M603.3,167l-0.2-0.3"
   id="path99" />&#10;	<path
   class="st6"
   d="M608.7,164.4l14-1.7l0.2,1.7l-14,1.7L608.7,164.4z"
   id="path100" />&#10;	<path
   class="st7"
   d="M627,162.1l-0.2-0.3 M626.9,161.8l-0.4-0.1 M626.5,161.7l-0.3,0 M626.2,161.7l-0.4,0.2 M625.8,161.9l-0.2,0.4    M625.6,162.4l0,0.7 M625.5,163l0.1,0.7 M625.6,163.7l0.2,0.5 M625.8,164.2l0.3,0.2 M626.1,164.5l0.4,0.1 M626.5,164.6l0.1,0    M626.7,164.5l0.4-0.2 M627.1,164.4l0.2-0.3 M627.3,164.1l0.1-0.4 M627.4,163.6l0-0.1 M627.4,163.5l-0.2-0.4 M627.2,163.1l-0.3-0.2    M626.9,162.9l-0.4-0.1 M626.5,162.8l-0.1,0 M626.3,162.8L626,163 M626,163l-0.2,0.3 M625.7,163.3l-0.1,0.4 M628.3,161.5l1.5-0.2    M629.8,161.3l-0.7,1.2 M629.1,162.5l0.4-0.1 M629.5,162.4l0.3,0.1 M629.8,162.5l0.1,0.1 M630,162.6l0.2,0.4 M630.2,163l0,0.3    M630.2,163.3l-0.1,0.4 M630.1,163.7l-0.2,0.3 M629.9,164l-0.4,0.2 M629.5,164.2l-0.4,0.1 M629.1,164.3l-0.4-0.1 M628.7,164.2   l-0.1-0.1 M628.5,164l-0.2-0.3"
   id="path101" />&#10;	<path
   class="st6"
   d="M633.9,161.4l14-1.7l0.2,1.7l-14,1.7L633.9,161.4z"
   id="path102" />&#10;	<path
   class="st7"
   d="M652.3,159.1l-0.2-0.3 M652.1,158.8l-0.4-0.1 M651.7,158.7l-0.3,0 M651.4,158.8l-0.4,0.2 M651,158.9l-0.2,0.4    M650.8,159.4l0,0.7 M650.8,160.1l0.1,0.7 M650.8,160.7l0.2,0.5 M651,161.2l0.3,0.2 M651.3,161.5l0.4,0.1 M651.8,161.6l0.1,0    M651.9,161.5l0.4-0.2 M652.3,161.4l0.2-0.3 M652.5,161.1l0.1-0.4 M652.6,160.6l0-0.1 M652.6,160.5l-0.2-0.4 M652.4,160.1l-0.3-0.2    M652.1,159.9l-0.4-0.1 M651.7,159.8l-0.1,0 M651.5,159.8l-0.4,0.2 M651.2,160l-0.2,0.3 M650.9,160.3l-0.1,0.4 M653.6,158.5   l1.5-0.2 M655,158.3l-0.7,1.2 M654.4,159.5l0.4-0.1 M654.8,159.4l0.3,0.1 M655,159.5l0.2,0.1 M655.2,159.7l0.2,0.4 M655.4,160   l0,0.3 M655.4,160.3l-0.1,0.4 M655.3,160.7l-0.2,0.3 M655.1,161l-0.4,0.2 M654.7,161.2l-0.4,0.1 M654.3,161.3l-0.4-0.1    M653.9,161.2l-0.2-0.1 M653.7,161.1l-0.2-0.3"
   id="path103" />&#10;	<path
   class="st6"
   d="M659.1,158.4l7.9-0.9l0.2,1.7l-7.9,0.9L659.1,158.4z"
   id="path104" />&#10;	<path
   class="st8"
   d="M663.3,158.2l-0.4,0.4l0.9-0.5L663.3,158.2z"
   id="path105" />&#10;	<path
   class="st8"
   d="M663,158.6l1.4-0.2l-0.5-0.3L663,158.6z"
   id="path106" />&#10;	<path
   class="st8"
   d="M663,158.6l0,0.6l1.4-0.8L663,158.6z"
   id="path107" />&#10;	<path
   class="st8"
   d="M662.9,159.2l1.6-0.2l-0.2-0.5L662.9,159.2z"
   id="path108" />&#10;	<path
   class="st8"
   d="M662.9,159.2l0.3,0.4l1.3-0.7L662.9,159.2z"
   id="path109" />&#10;	<path
   class="st8"
   d="M663.3,159.6l1-0.1l0.2-0.5L663.3,159.6z"
   id="path110" />&#10;	<path
   class="st8"
   d="M663.3,159.6l0.5,0.1l0.5-0.3L663.3,159.6z"
   id="path111" />&#10;	<path
   class="st8"
   d="M666.6,162.4L666.6,162.4L666.6,162.4L666.6,162.4z"
   id="path112" />&#10;	<path
   class="st8"
   d="M661.6,163.6l1.5-0.2l-1.2-0.4L661.6,163.6z"
   id="path113" />&#10;	<path
   class="st8"
   d="M666.6,162.4l-1.1,0.6L666.6,162.4L666.6,162.4z"
   id="path114" />&#10;	<path
   class="st8"
   d="M665.5,163.1l1.4-0.2l-0.4-0.5L665.5,163.1z"
   id="path115" />&#10;	<path
   class="st8"
   d="M661.6,163.6L661.6,163.6l1.5-0.2L661.6,163.6z"
   id="path116" />&#10;	<path
   class="st8"
   d="M661.6,163.6l1.5-0.2l0,0L661.6,163.6z"
   id="path117" />&#10;	<path
   class="st8"
   d="M665.5,163.1L665.5,163.1l1.4-0.2L665.5,163.1z"
   id="path118" />&#10;	<path
   class="st8"
   d="M665.5,163.1l1.4-0.2l0,0L665.5,163.1z"
   id="path119" />&#10;	<path
   class="st8"
   d="M661.6,163.6l-0.1,0.2l1.5-0.4L661.6,163.6z"
   id="path120" />&#10;	<path
   class="st8"
   d="M661.5,163.8l2.8-0.4l-1.3,0L661.5,163.8z"
   id="path121" />&#10;	<path
   class="st8"
   d="M665.5,163.1l-1.2,0.3l2.7-0.5L665.5,163.1z"
   id="path122" />&#10;	<path
   class="st8"
   d="M664.3,163.4l2.8-0.4l-0.1-0.2L664.3,163.4z"
   id="path123" />&#10;	<path
   class="st8"
   d="M661.5,163.8l-6.9,15.2l12.4-15.9L661.5,163.8z"
   id="path124" />&#10;	<path
   class="st8"
   d="M654.7,179l23-3l-10.6-12.9L654.7,179z"
   id="path125" />&#10;	<path
   class="st8"
   d="M649.9,141.9l10.5,12.9l12.5-15.9L649.9,141.9z"
   id="path126" />&#10;	<path
   class="st8"
   d="M660.4,154.8l5.6-0.7l7-15.1L660.4,154.8z"
   id="path127" />&#10;	<path
   class="st8"
   d="M660.4,154.8l0.1,0.2l2.7-0.5L660.4,154.8z"
   id="path128" />&#10;	<path
   class="st8"
   d="M660.5,154.9l1.5-0.2l1.2-0.3L660.5,154.9z"
   id="path129" />&#10;	<path
   class="st8"
   d="M663.2,154.4l1.3,0l1.5-0.4L663.2,154.4z"
   id="path130" />&#10;	<path
   class="st8"
   d="M664.4,154.4l1.4-0.2l0.1-0.2L664.4,154.4z"
   id="path131" />&#10;	<path
   class="st8"
   d="M660.5,154.9L660.5,154.9l1.5-0.2L660.5,154.9z"
   id="path132" />&#10;	<path
   class="st8"
   d="M660.5,154.9l1.5-0.2l0,0L660.5,154.9z"
   id="path133" />&#10;	<path
   class="st8"
   d="M664.4,154.4L664.4,154.4l1.4-0.2L664.4,154.4z"
   id="path134" />&#10;	<path
   class="st8"
   d="M664.4,154.4l1.4-0.2l0,0L664.4,154.4z"
   id="path135" />&#10;	<path
   class="st8"
   d="M660.5,154.9l0.4,0.5l1.1-0.7L660.5,154.9z"
   id="path136" />&#10;	<path
   class="st8"
   d="M660.9,155.4L660.9,155.4l1.1-0.7L660.9,155.4z"
   id="path137" />&#10;	<path
   class="st8"
   d="M664.4,154.4l1.2,0.4l0.3-0.5L664.4,154.4z"
   id="path138" />&#10;	<path
   class="st8"
   d="M660.9,155.4L660.9,155.4L660.9,155.4L660.9,155.4z"
   id="path139" />&#10;	<path
   class="st9"
   d="M672.9,138.9l-7.3,15.9"
   id="path140" />&#10;	<path
   class="st9"
   d="M661.9,163.1l-7.2,15.9"
   id="path141" />&#10;	<path
   class="st9"
   d="M677.7,176l-11.1-13.6"
   id="path142" />&#10;	<path
   class="st9"
   d="M660.9,155.4l-11-13.5"
   id="path143" />&#10;	<path
   class="st9"
   d="M668.2,158.4l7-0.9"
   id="path144" />&#10;	<path
   class="st9"
   d="M675.3,157.5l-0.8-5.9"
   id="path145" />&#10;	<path
   class="st9"
   d="M674.5,151.6l1.6,12.3"
   id="path146" />&#10;	<path
   class="st9"
   d="M659.2,158.9l0.2-1.3 M659.4,157.6l0.5-1.2 M659.9,156.4l0.8-1 M660.8,155.5l1.1-0.7 M661.8,154.8l1.2-0.4    M663.1,154.4h1.3 M664.4,154.4l1.2,0.4 M665.6,154.8l1.1,0.7 M666.7,155.5l0.8,1 M667.5,156.4l0.5,1.2 M668.1,157.6l0.2,1.3    M668.3,158.9l-0.2,1.3 M668.1,160.2l-0.5,1.2 M667.5,161.4l-0.8,1 M666.7,162.4l-1.1,0.7 M665.6,163.1l-1.2,0.4 M664.4,163.4h-1.3    M663.1,163.4l-1.2-0.4 M661.8,163.1l-1.1-0.7 M660.8,162.4l-0.8-1 M659.9,161.4l-0.5-1.2 M659.4,160.2l-0.2-1.3"
   id="path147" />&#10;	<path
   class="st9"
   d="M677.7,176l-23,3"
   id="path148" />&#10;	<path
   class="st9"
   d="M649.9,141.9l23-3"
   id="path149" />&#10;	<path
   class="st9"
   d="M662.9,158.9l0.2-0.5 M663.1,158.4l0.5-0.3 M663.6,158.1l0.5,0.1 M664.1,158.2l0.4,0.4 M664.5,158.6v0.6    M664.5,159.2l-0.4,0.4 M664.1,159.6l-0.5,0.1 M663.6,159.7l-0.5-0.3 M663.1,159.4l-0.2-0.5"
   id="path150" />&#10;	<path
   class="st8"
   d="M663,158.9l-0.4-2.4l1.7-0.3l0.4,2.4L663,158.9z"
   id="path151" />&#10;	<path
   class="st8"
   d="M663.5,157.1l-10.8,1.3l-0.2-1.7l10.8-1.3L663.5,157.1z"
   id="path152" />&#10;	<path
   class="st0"
   d="M659.5,15.2l-92,16.9 M567.5,32l-311.5,70.9 M255.9,102.9L106.4,1.7 M106.4,1.7L48,87.9"
   id="path153" />&#10;	<path
   class="st6"
   d="M582.7,167.4l14-1.7l0.2,1.7l-14,1.7L582.7,167.4z"
   id="path154" />&#10;</g>&#10;<g
   id="Layer_2">&#10;	<circle
   class="st10"
   cx="208.7"
   cy="191.7"
   r="15.3"
   id="circle154" />&#10;	<circle
   class="st10"
   cx="249.1"
   cy="187.6"
   r="15.3"
   id="circle155" />&#10;	<circle
   class="st10"
   cx="290.4"
   cy="180.6"
   r="15.3"
   id="circle156" />&#10;	<circle
   class="st10"
   cx="333.8"
   cy="173.9"
   r="15.3"
   id="circle157" />&#10;	<circle
   class="st10"
   cx="373.7"
   cy="169.6"
   r="15.3"
   id="circle158" />&#10;	<circle
   class="st10"
   cx="415.1"
   cy="156.2"
   r="15.3"
   id="circle159" />&#10;	<circle
   class="st10"
   cx="455.9"
   cy="150.6"
   r="15.3"
   id="circle160" />&#10;	<circle
   class="st10"
   cx="497.7"
   cy="144.8"
   r="15.3"
   id="circle161" />&#10;	<circle
   class="st10"
   cx="539.8"
   cy="138.2"
   r="15.3"
   id="circle162" />&#10;	<circle
   class="st10"
   cx="581.9"
   cy="132"
   r="15.3"
   id="circle163" />&#10;	<circle
   class="st10"
   cx="193.3"
   cy="152"
   r="15.3"
   id="circle164" />&#10;	<circle
   class="st10"
   cx="324.2"
   cy="133.5"
   r="9.1"
   id="circle165" />&#10;	<circle
   class="st10"
   cx="289.3"
   cy="138.9"
   r="9.1"
   id="circle166" />&#10;	<circle
   class="st10"
   cx="366.8"
   cy="124.8"
   r="9.1"
   id="circle167" />&#10;	<circle
   class="st10"
   cx="406.9"
   cy="114"
   r="9.1"
   id="circle168" />&#10;	<circle
   class="st10"
   cx="449.4"
   cy="106.9"
   r="9.1"
   id="circle169" />&#10;	<circle
   class="st10"
   cx="489.4"
   cy="101.5"
   r="9.1"
   id="circle170" />&#10;	<circle
   class="st10"
   cx="532.5"
   cy="94.7"
   r="9.1"
   id="circle171" />&#10;	<circle
   class="st10"
   cx="574.4"
   cy="89.9"
   r="9.1"
   id="circle172" />&#10;	<circle
   class="st10"
   cx="165"
   cy="117.5"
   r="7"
   id="circle173" />&#10;	<circle
   class="st10"
   cx="121.3"
   cy="124.3"
   r="7"
   id="circle174" />&#10;	<circle
   class="st10"
   cx="159.2"
   cy="78.7"
   r="15.3"
   id="circle175" />&#10;	<circle
   class="st10"
   cx="116.1"
   cy="84.5"
   r="15.3"
   id="circle176" />&#10;	<circle
   class="st10"
   cx="75.5"
   cy="90.2"
   r="15.3"
   id="circle177" />&#10;	<circle
   class="st10"
   cx="109.6"
   cy="43.1"
   r="9.1"
   id="circle178" />&#10;	<circle
   class="st10"
   cx="150.1"
   cy="36.4"
   r="9.1"
   id="circle179" />&#10;	<circle
   class="st10"
   cx="255.2"
   cy="226.1"
   r="7"
   id="circle180" />&#10;	<circle
   class="st10"
   cx="297"
   cy="220.9"
   r="7"
   id="circle181" />&#10;	<circle
   class="st10"
   cx="338.7"
   cy="214"
   r="7"
   id="circle182" />&#10;	<circle
   class="st10"
   cx="380.6"
   cy="209.3"
   r="7"
   id="circle183" />&#10;	<circle
   class="st10"
   cx="419.7"
   cy="197"
   r="7"
   id="circle184" />&#10;	<circle
   class="st10"
   cx="462.3"
   cy="192.5"
   r="7"
   id="circle185" />&#10;	<circle
   class="st10"
   cx="503.6"
   cy="183.4"
   r="7"
   id="circle186" />&#10;	<circle
   class="st10"
   cx="547"
   cy="177.3"
   r="7"
   id="circle187" />&#10;	<circle
   class="st10"
   cx="586.9"
   cy="171"
   r="7"
   id="circle188" />&#10;	<circle
   class="st11"
   cx="593.6"
   cy="213.5"
   r="7"
   id="circle189" />&#10;	<circle
   class="st11"
   cx="551.8"
   cy="219.8"
   r="7"
   id="circle190" />&#10;	<circle
   class="st11"
   cx="509.8"
   cy="225.5"
   r="7"
   id="circle191" />&#10;	<circle
   class="st11"
   cx="468.1"
   cy="231.8"
   r="7"
   id="circle192" />&#10;	<circle
   class="st11"
   cx="425.9"
   cy="238"
   r="7"
   id="circle193" />&#10;	<circle
   class="st11"
   cx="387.4"
   cy="250.6"
   r="7"
   id="circle194" />&#10;	<circle
   class="st11"
   cx="345.6"
   cy="256.8"
   r="7"
   id="circle195" />&#10;	<circle
   class="st11"
   cx="303.6"
   cy="262.8"
   r="7"
   id="circle196" />&#10;	<circle
   class="st11"
   cx="261.6"
   cy="269.1"
   r="7"
   id="circle197" />&#10;	<circle
   class="st10"
   cx="600.1"
   cy="239.3"
   r="7"
   id="circle198" />&#10;	<circle
   class="st10"
   cx="558"
   cy="245.8"
   r="7"
   id="circle199" />&#10;	<circle
   class="st10"
   cx="474.6"
   cy="258.3"
   r="7"
   id="circle200" />&#10;	<circle
   class="st10"
   cx="432.7"
   cy="263.5"
   r="7"
   id="circle201" />&#10;	<circle
   class="st10"
   cx="400.1"
   cy="284.9"
   r="7"
   id="circle202" />&#10;	<circle
   class="st10"
   cx="358.2"
   cy="291.1"
   r="7"
   id="circle203" />&#10;	<circle
   class="st10"
   cx="316"
   cy="296.9"
   r="7"
   id="circle204" />&#10;	<circle
   class="st10"
   cx="323"
   cy="338.9"
   r="12.1"
   id="circle205" />&#10;	<circle
   class="st10"
   cx="362.5"
   cy="333.8"
   r="12.1"
   id="circle206" />&#10;	<circle
   class="st10"
   cx="405.8"
   cy="326.7"
   r="12.1"
   id="circle207" />&#10;	<circle
   class="st10"
   cx="437.5"
   cy="306.9"
   r="12.1"
   id="circle208" />&#10;	<circle
   class="st10"
   cx="479.3"
   cy="300.8"
   r="12.1"
   id="circle209" />&#10;	<circle
   class="st10"
   cx="524"
   cy="295.9"
   r="12.1"
   id="circle210" />&#10;	<circle
   class="st10"
   cx="563.5"
   cy="289.3"
   r="12.1"
   id="circle211" />&#10;	<circle
   class="st10"
   cx="604.1"
   cy="283.1"
   r="12.1"
   id="circle212" />&#10;	<circle
   class="st10"
   cx="611.8"
   cy="324.7"
   r="8.2"
   id="circle213" />&#10;	<circle
   class="st10"
   cx="570.1"
   cy="330.2"
   r="8.2"
   id="circle214" />&#10;	<circle
   class="st10"
   cx="527.4"
   cy="333.7"
   r="8.2"
   id="circle215" />&#10;	<circle
   class="st10"
   cx="488"
   cy="339.7"
   r="8.2"
   id="circle216" />&#10;	<circle
   class="st10"
   cx="445.1"
   cy="347.2"
   r="8.2"
   id="circle217" />&#10;	<circle
   class="st10"
   cx="412.2"
   cy="367.7"
   r="8.2"
   id="circle218" />&#10;	<circle
   class="st10"
   cx="369.8"
   cy="373.5"
   r="8.2"
   id="circle219" />&#10;	<circle
   class="st11"
   cx="377.6"
   cy="417"
   r="7"
   id="circle220" />&#10;	<circle
   class="st11"
   cx="418.3"
   cy="409.3"
   r="7"
   id="circle221" />&#10;	<circle
   class="st11"
   cx="451.1"
   cy="389"
   r="7"
   id="circle222" />&#10;	<circle
   class="st11"
   cx="493.6"
   cy="383.5"
   r="7"
   id="circle223" />&#10;	<circle
   class="st11"
   cx="534.8"
   cy="377.3"
   r="7"
   id="circle224" />&#10;	<circle
   class="st11"
   cx="576.8"
   cy="371.3"
   r="7"
   id="circle225" />&#10;	<circle
   class="st11"
   cx="618.6"
   cy="364.8"
   r="7"
   id="circle226" />&#10;	<circle
   class="st12"
   cx="470.1"
   cy="410.8"
   r="7"
   id="circle227" />&#10;	<circle
   class="st12"
   cx="510.6"
   cy="403.8"
   r="7"
   id="circle228" />&#10;	<circle
   class="st12"
   cx="553.1"
   cy="399.4"
   r="7"
   id="circle229" />&#10;	<circle
   class="st12"
   cx="594.8"
   cy="392.7"
   r="7"
   id="circle230" />&#10;	<circle
   class="st12"
   cx="638.1"
   cy="386"
   r="7"
   id="circle231" />&#10;	<circle
   class="st10"
   cx="477.1"
   cy="453.7"
   r="12.1"
   id="circle232" />&#10;	<circle
   class="st10"
   cx="516"
   cy="447.5"
   r="12.1"
   id="circle233" />&#10;	<circle
   class="st10"
   cx="559.1"
   cy="441.9"
   r="12.1"
   id="circle234" />&#10;	<circle
   class="st10"
   cx="599.8"
   cy="436.9"
   r="12.1"
   id="circle235" />&#10;	<circle
   class="st10"
   cx="642.3"
   cy="432.2"
   r="12.1"
   id="circle236" />&#10;	<circle
   class="st10"
   cx="481.8"
   cy="492.6"
   r="8.2"
   id="circle237" />&#10;	<circle
   class="st10"
   cx="524.6"
   cy="486.2"
   r="8.2"
   id="circle238" />&#10;	<circle
   class="st10"
   cx="565.9"
   cy="481"
   r="8.2"
   id="circle239" />&#10;	<circle
   class="st10"
   cx="609.4"
   cy="474.8"
   r="8.2"
   id="circle240" />&#10;	<circle
   class="st10"
   cx="650.9"
   cy="468"
   r="8.2"
   id="circle241" />&#10;	<circle
   class="st11"
   cx="487.3"
   cy="536.3"
   r="7"
   id="circle242" />&#10;	<circle
   class="st11"
   cx="530.3"
   cy="530.5"
   r="7"
   id="circle243" />&#10;	<circle
   class="st11"
   cx="571.1"
   cy="523.8"
   r="7"
   id="circle244" />&#10;	<circle
   class="st11"
   cx="613.8"
   cy="516.5"
   r="7"
   id="circle245" />&#10;	<circle
   class="st11"
   cx="655.6"
   cy="511"
   r="7"
   id="circle246" />&#10;	<circle
   class="st13"
   cx="510.2"
   cy="262"
   r="20.3"
   id="circle247" />&#10;	<circle
   class="st13"
   cx="232.2"
   cy="152"
   r="20.3"
   id="circle248" />&#10;	<circle
   class="st13"
   cx="434.2"
   cy="444"
   r="20.3"
   id="circle249" />&#10;	<circle
   class="st11"
   cx="629.9"
   cy="42.3"
   r="11.1"
   id="circle250" />&#10;	<circle
   class="st11"
   cx="645.1"
   cy="125"
   r="11.1"
   id="circle251" />&#10;	<circle
   class="st11"
   cx="660.4"
   cy="209.3"
   r="11.1"
   id="circle252" />&#10;	<circle
   class="st11"
   cx="675.8"
   cy="292.3"
   r="11.1"
   id="circle253" />&#10;	<circle
   class="st11"
   cx="691.3"
   cy="375.6"
   r="11.1"
   id="circle254" />&#10;	<circle
   class="st11"
   cx="706.9"
   cy="459.3"
   r="11.1"
   id="circle255" />&#10;	<circle
   class="st12"
   cx="714.8"
   cy="499.1"
   r="11.1"
   id="circle256" />&#10;	<circle
   class="st12"
   cx="696.6"
   cy="416.6"
   r="11.1"
   id="circle257" />&#10;	<circle
   class="st12"
   cx="684.1"
   cy="334"
   r="11.1"
   id="circle258" />&#10;	<circle
   class="st12"
   cx="667.8"
   cy="250.5"
   r="11.1"
   id="circle259" />&#10;	<circle
   class="st12"
   cx="652.9"
   cy="167.1"
   r="11.1"
   id="circle260" />&#10;	<circle
   class="st12"
   cx="638.4"
   cy="85"
   r="11.1"
   id="circle261" />&#10;</g>&#10;</svg>
