<?xml version="1.0" encoding="iso-8859-1"?>
<!-- Generator: Adobe Illustrator 19.0.0, SVG Export Plug-In . SVG Version: 6.00 Build 0)  -->
<!-- License: CC0. Made by SVG Repo: https://www.svgrepo.com/svg/53816/cap -->
<svg version="1.1" id="Layer_1" xmlns="http://www.w3.org/2000/svg" xmlns:xlink="http://www.w3.org/1999/xlink" x="0px" y="0px"
	 viewBox="0 0 249.745 249.745" style="enable-background:new 0 0 249.745 249.745;" xml:space="preserve">
<g>
	<path style="fill:#1D1D1B;" d="M243.926,121.716c21.7,53.286-20.816,89.413-69.28,100.143
		c-55.818,12.377-123.41-6.068-170.669-37.091c-0.924-0.603-0.643-1.808,0.121-2.21c-0.04-0.08-0.121-0.201-0.161-0.322
		c-15.994-65.864,17.682-134.3,83.948-153.429c69.802-20.133,129.157,25.518,154.594,88.529c0.201,0.522,0.161,0.924,0.04,1.286
		c0.563,0.563,0.804,1.326,0.603,2.13C243.444,120.953,243.725,121.274,243.926,121.716z M145.632,221.296
		c52.482-2.612,118.829-34.962,94.637-97.33c-28.291,28.974-63.212,44.686-102.192,54.894
		c-42.195,11.051-87.846,15.793-130.523,4.983C47.94,206.066,99.378,223.627,145.632,221.296z M238.903,119.386
		c-0.241-0.241-0.482-0.482-0.643-0.884c-25.197-60.4-81.336-105.166-149.25-85.676c-2.13,0.603-4.179,1.286-6.229,1.969
		c60.158,11.614,93.392,62.167,114.368,116.82C212.46,142.854,226.566,132.165,238.903,119.386z M193.734,153.543
		c-11.091-27.246-23.669-54.492-43.682-76.473c-20.053-22.022-43.24-32.872-71.129-40.869c-0.08,0.04-0.12,0.04-0.201,0.08
		c-0.201,0.201-0.362,0.402-0.563,0.563c-3.456,48.665,9.082,104.161,40.547,142.257c0.121,0.161,0.241,0.322,0.281,0.482
		C145.31,174.641,170.788,166.162,193.734,153.543z M115.693,180.227c-17.36-16.838-25.518-41.753-32.269-64.337
		c-7.475-24.835-11.855-50.714-7.876-76.433c-39.543,39.462-47.339,92.507-30.34,145.311
		C68.435,185.692,92.345,184.326,115.693,180.227z M41.591,184.607C25.637,135.018,29.857,74.579,71.529,39.416
		C17.319,64.13-2.292,122.239,6.589,181.111C17.962,182.879,29.696,184.004,41.591,184.607z"/>
	<path style="fill:#1D1D1B;" d="M242.077,146.953c0.04,3.938-0.08,8.238-1.688,11.895c-0.281,0.723-1.487,0.362-1.407-0.362
		c0.362-3.898,1.366-7.635,1.527-11.533C240.55,145.948,242.077,145.908,242.077,146.953z"/>
	<path style="fill:#33B4AE;" d="M240.269,123.967c24.192,62.368-42.155,94.718-94.637,97.33
		c-46.254,2.331-97.691-15.23-138.078-37.453c42.677,10.81,88.328,6.068,130.523-4.983
		C177.057,168.653,211.978,152.941,240.269,123.967z M240.39,158.848c1.607-3.657,1.728-7.957,1.688-11.895
		c0-1.045-1.527-1.005-1.567,0c-0.161,3.898-1.165,7.635-1.527,11.533C238.903,159.21,240.108,159.571,240.39,158.848z
		 M235.607,166.041c2.25-4.581,3.054-9.524,2.451-14.587c-0.08-1.045-1.768-1.085-1.688,0c0.362,4.742-0.522,9.243-2.451,13.583
		C233.437,166.162,235.045,167.166,235.607,166.041z M175.369,193.166c0.643-1.125-0.964-2.009-1.728-1.005
		c-2.21,2.934-5.385,4.943-8.962,5.626c-1.085,0.201-0.884,2.09,0.241,1.969C169.341,199.154,173.038,196.984,175.369,193.166z
		 M101.628,195.939c0.924-0.08,0.964-1.527,0-1.487c-2.853,0.121-5.706,0.322-8.519,0.603c-0.844,0.08-0.884,1.326,0,1.286
		C95.962,196.261,98.775,196.18,101.628,195.939z M96.766,191.8c0.924-0.281,0.563-1.607-0.362-1.447
		c-3.576,0.763-7.113,0.924-10.689,0.241c-0.763-0.161-1.125,0.965-0.321,1.165C89.171,192.805,92.988,192.965,96.766,191.8z"/>
	<path style="fill:#FFF266;" d="M238.26,118.501c0.161,0.402,0.402,0.643,0.643,0.884c-12.337,12.779-26.442,23.468-41.753,32.229
		C176.173,96.961,142.94,46.408,82.782,34.794c2.05-0.683,4.099-1.366,6.229-1.969C156.924,13.336,213.063,58.102,238.26,118.501z
		 M227.932,109.46c0.241,0.804,1.607,0.683,1.527-0.201c-0.322-4.34-2.572-8.118-5.666-11.172c-0.643-0.643-1.607,0.322-1.005,1.005
		C225.44,102.106,226.847,105.682,227.932,109.46z M224.476,113.197c0.563,0.965,2.009,0.121,1.527-0.884
		c-1.246-2.532-2.371-5.063-3.215-7.756c-0.281-0.924-1.728-0.563-1.487,0.402C222.065,107.852,223.069,110.585,224.476,113.197z
		 M187.907,108.134c0.402,0.683,1.607,0.241,1.326-0.563c-0.965-2.853-2.692-5.184-4.661-7.394
		c-0.683-0.764-1.728,0.321-1.125,1.085C185.174,103.392,186.501,105.763,187.907,108.134z M182.844,108.616
		c0.402,0.683,1.567,0.241,1.286-0.522c-1.607-4.059-4.621-7.233-8.238-9.564c-0.764-0.482-1.406,0.643-0.683,1.165
		C178.504,102.025,180.875,105.12,182.844,108.616z M170.386,70.881c0.482,0.643,1.447,0.121,1.085-0.603
		c-1.407-2.733-3.416-4.581-6.189-5.867c-0.804-0.402-1.567,0.804-0.723,1.246C166.85,66.943,168.859,68.792,170.386,70.881z
		 M159.054,37.527c0.763,0.362,1.406-0.723,0.683-1.165c-3.255-2.09-7.033-3.175-10.89-3.094c-0.844,0-0.804,1.165,0,1.246
		C152.463,34.955,155.799,35.88,159.054,37.527z"/>
	<path style="fill:#1D1D1B;" d="M238.059,151.454c0.603,5.063-0.201,10.006-2.451,14.587c-0.563,1.125-2.17,0.12-1.688-1.005
		c1.929-4.34,2.813-8.841,2.451-13.583C236.291,150.369,237.978,150.409,238.059,151.454z"/>
	<path style="fill:#1D1D1B;" d="M229.459,109.259c0.08,0.884-1.286,1.005-1.527,0.201c-1.085-3.777-2.492-7.354-5.144-10.368
		c-0.603-0.683,0.362-1.648,1.005-1.005C226.887,101.141,229.138,104.919,229.459,109.259z"/>
	<path style="fill:#1D1D1B;" d="M226.003,112.313c0.482,1.005-0.965,1.849-1.527,0.884c-1.407-2.612-2.411-5.345-3.175-8.238
		c-0.241-0.964,1.206-1.326,1.487-0.402C223.632,107.249,224.757,109.781,226.003,112.313z"/>
	<path style="fill:#1D1D1B;" d="M189.233,107.571c0.281,0.804-0.924,1.246-1.326,0.563c-1.407-2.371-2.733-4.742-4.461-6.872
		c-0.603-0.764,0.442-1.849,1.125-1.085C186.541,102.387,188.269,104.718,189.233,107.571z"/>
	<path style="fill:#1D1D1B;" d="M182.964,150.409c0.764-0.603,1.768,0.322,1.085,1.085c-2.371,2.532-5.104,4.179-8.359,5.345
		c-0.884,0.321-1.487-1.125-0.603-1.527C177.901,154.026,180.553,152.298,182.964,150.409z"/>
	<path style="fill:#1D1D1B;" d="M184.13,108.093c0.281,0.764-0.884,1.206-1.286,0.522c-1.969-3.496-4.34-6.59-7.635-8.921
		c-0.723-0.522-0.08-1.648,0.683-1.165C179.508,100.86,182.522,104.035,184.13,108.093z"/>
	<path style="fill:#33B4AE;" d="M150.052,77.07c20.012,21.982,32.59,49.227,43.682,76.473
		c-22.946,12.618-48.424,21.098-74.745,26.04c-0.04-0.161-0.161-0.321-0.281-0.482C87.242,141.005,74.704,85.509,78.16,36.844
		c0.201-0.161,0.362-0.362,0.563-0.563c0.08-0.04,0.12-0.04,0.201-0.08C106.812,44.198,129.999,55.048,150.052,77.07z
		 M184.049,151.494c0.683-0.764-0.321-1.688-1.085-1.085c-2.411,1.889-5.063,3.617-7.876,4.903
		c-0.884,0.402-0.281,1.848,0.603,1.527C178.946,155.673,181.678,154.026,184.049,151.494z M133.415,105.722
		c0.522,1.045,2.009,0.12,1.527-0.884c-1.406-3.215-4.26-5.104-7.675-5.546c-0.844-0.121-1.045,1.326-0.201,1.487
		C129.919,101.302,132.169,103.11,133.415,105.722z M119.752,65.537c0.522,0.563,1.567-0.201,1.085-0.844
		c-2.532-3.456-5.626-6.108-9.323-8.278c-0.844-0.482-1.567,0.804-0.764,1.326C114.126,59.83,117.14,62.523,119.752,65.537z
		 M118.828,59.67c0.563,0.402,1.326-0.402,0.924-0.965c-2.652-3.818-6.952-6.269-11.252-7.796c-0.965-0.362-1.648,1.206-0.723,1.648
		C111.916,54.365,115.211,57.017,118.828,59.67z M115.854,160.053c0.683,0.442,1.487-0.603,0.884-1.085
		c-2.893-2.331-5.345-5.023-7.153-8.278c-0.402-0.764-1.487-0.08-1.125,0.643C110.188,154.91,112.559,157.883,115.854,160.053z
		 M111.152,160.013c0.723,0.683,1.768-0.362,1.125-1.125c-2.974-3.295-5.626-6.791-7.756-10.689
		c-0.442-0.764-1.607-0.08-1.206,0.683C105.366,152.981,107.897,156.798,111.152,160.013z"/>
	<path style="fill:#1D1D1B;" d="M173.641,192.162c0.763-1.005,2.371-0.121,1.728,1.005c-2.331,3.818-6.028,5.988-10.448,6.59
		c-1.125,0.12-1.326-1.768-0.241-1.969C168.256,197.105,171.431,195.095,173.641,192.162z"/>
	<path style="fill:#1D1D1B;" d="M171.471,70.279c0.362,0.723-0.603,1.246-1.085,0.603c-1.527-2.09-3.536-3.938-5.827-5.224
		c-0.844-0.442-0.08-1.648,0.723-1.246C168.055,65.697,170.065,67.546,171.471,70.279z"/>
	<path style="fill:#1D1D1B;" d="M159.737,36.362c0.723,0.442,0.08,1.527-0.683,1.165c-3.255-1.648-6.59-2.572-10.207-3.014
		c-0.804-0.08-0.844-1.246,0-1.246C152.704,33.187,156.482,34.272,159.737,36.362z"/>
	<path style="fill:#1D1D1B;" d="M134.942,104.838c0.482,1.005-1.005,1.929-1.527,0.884c-1.246-2.612-3.496-4.42-6.349-4.943
		c-0.844-0.161-0.643-1.607,0.201-1.487C130.683,99.735,133.536,101.623,134.942,104.838z"/>
	<path style="fill:#1D1D1B;" d="M120.837,64.693c0.482,0.643-0.563,1.407-1.085,0.844c-2.612-3.014-5.626-5.706-9.002-7.796
		c-0.804-0.522-0.08-1.808,0.764-1.326C115.211,58.585,118.305,61.237,120.837,64.693z"/>
	<path style="fill:#1D1D1B;" d="M119.752,58.705c0.402,0.563-0.362,1.366-0.924,0.965c-3.617-2.652-6.912-5.305-11.051-7.113
		c-0.924-0.442-0.241-2.009,0.723-1.648C112.8,52.436,117.1,54.888,119.752,58.705z"/>
	<path style="fill:#1D1D1B;" d="M116.738,158.968c0.603,0.482-0.201,1.527-0.884,1.085c-3.295-2.17-5.666-5.144-7.394-8.72
		c-0.362-0.723,0.723-1.406,1.125-0.643C111.393,153.945,113.845,156.638,116.738,158.968z"/>
	<path style="fill:#1D1D1B;" d="M112.278,158.888c0.643,0.764-0.402,1.808-1.125,1.125c-3.255-3.215-5.787-7.033-7.836-11.131
		c-0.402-0.764,0.764-1.447,1.206-0.683C106.652,152.097,109.304,155.593,112.278,158.888z"/>
	<path style="fill:#1D1D1B;" d="M101.628,194.452c0.964-0.04,0.924,1.407,0,1.487c-2.853,0.241-5.666,0.322-8.519,0.402
		c-0.884,0.04-0.844-1.206,0-1.286C95.922,194.774,98.775,194.573,101.628,194.452z"/>
	<path style="fill:#FFF266;" d="M83.424,115.889c6.751,22.584,14.909,47.499,32.269,64.337c-23.348,4.099-47.258,5.465-70.486,4.541
		c-16.999-52.804-9.202-105.849,30.34-145.311C71.569,65.175,75.95,91.055,83.424,115.889z M42.073,142.412
		c0.08,1.005,1.607,1.005,1.567,0c-0.121-3.014-0.241-6.028-0.522-9.042c-0.121-1.005-1.607-1.045-1.607,0
		C41.591,136.384,41.832,139.398,42.073,142.412z M40.265,148.601c0.121,0.643,1.045,0.362,0.964-0.281
		c-0.522-3.456-0.844-6.952-1.286-10.448c-0.08-0.683-1.165-0.723-1.125,0C38.899,141.488,39.461,145.064,40.265,148.601z"/>
	<path style="fill:#1D1D1B;" d="M96.404,190.353c0.924-0.161,1.286,1.165,0.362,1.447c-3.777,1.165-7.595,1.005-11.373-0.04
		c-0.804-0.201-0.442-1.326,0.321-1.165C89.291,191.278,92.828,191.117,96.404,190.353z"/>
	<path style="fill:#1D1D1B;" d="M43.64,142.412c0.04,1.005-1.487,1.005-1.567,0c-0.241-3.014-0.482-6.028-0.563-9.042
		c0-1.045,1.487-1.005,1.607,0C43.399,136.384,43.52,139.398,43.64,142.412z"/>
	<path style="fill:#1D1D1B;" d="M41.229,148.319c0.08,0.643-0.844,0.924-0.964,0.281c-0.804-3.536-1.366-7.113-1.447-10.73
		c-0.04-0.723,1.045-0.683,1.125,0C40.385,141.367,40.707,144.863,41.229,148.319z"/>
	<path style="fill:#1D1D1B;" d="M36.608,84.705c0.643-0.924,1.969-0.121,1.487,0.884c-1.366,2.893-2.331,5.706-3.134,8.801
		c-0.241,0.763-1.447,0.603-1.407-0.201C33.594,90.894,34.759,87.438,36.608,84.705z"/>
	<path style="fill:#33B4AE;" d="M71.529,39.416c-41.673,35.163-45.892,95.602-29.938,145.191
		c-11.895-0.603-23.629-1.728-35.002-3.496C-2.292,122.239,17.319,64.13,71.529,39.416z M38.095,85.589
		c0.482-1.005-0.844-1.808-1.487-0.884c-1.848,2.733-3.014,6.189-3.054,9.484c-0.04,0.804,1.165,0.964,1.407,0.201
		C35.764,91.296,36.729,88.483,38.095,85.589z M12.296,170.542c0.201-2.853,0.161-5.706,0.08-8.519c-0.04-0.844-1.286-0.844-1.326,0
		c-0.08,2.813-0.12,5.666,0.08,8.519C11.17,171.305,12.255,171.305,12.296,170.542z M9.041,175.244
		c0.322,0.924,1.728,0.563,1.447-0.402c-0.924-3.617-1.005-7.153-1.085-10.85c-0.04-0.924-1.527-1.206-1.728-0.241
		C6.991,167.648,7.714,171.547,9.041,175.244z"/>
	<path style="fill:#1D1D1B;" d="M12.376,162.023c0.08,2.813,0.121,5.666-0.08,8.519c-0.04,0.764-1.125,0.764-1.165,0
		c-0.201-2.853-0.161-5.706-0.08-8.519C11.09,161.179,12.336,161.179,12.376,162.023z"/>
	<path style="fill:#1D1D1B;" d="M10.487,174.842c0.281,0.964-1.125,1.326-1.447,0.402c-1.326-3.697-2.049-7.595-1.366-11.493
		c0.201-0.964,1.688-0.683,1.728,0.241C9.483,167.689,9.563,171.225,10.487,174.842z"/>
</g>
</svg>
